<svg id="Layer_1" data-name="Layer 1" xmlns="http://www.w3.org/2000/svg" viewBox="0 0 203 88.73"><defs><style>.cls-1{fill:#85e380;}.cls-2{fill:#10a07d;}.cls-3{fill:#096a62;}</style></defs><path class="cls-1" d="M135.41,25.56A25.44,25.44,0,1,1,110,.12,25.57,25.57,0,0,1,135.41,25.56Z"/><path class="cls-1" d="M202.75,58.32a21.24,21.24,0,1,1-21.24-21.23A21.34,21.34,0,0,1,202.75,58.32Z"/><path class="cls-1" d="M71.07,44.1a25.5,25.5,0,1,1-25.5-25.5A25.62,25.62,0,0,1,71.07,44.1Z"/><path class="cls-1" d="M177.06,43.62a25.44,25.44,0,1,1-25.44-25.44A25.56,25.56,0,0,1,177.06,43.62Z"/><path class="cls-1" d="M160.42,34.05A25.44,25.44,0,1,1,135,8.61,25.56,25.56,0,0,1,160.42,34.05Z"/><path class="cls-2" d="M139.44,40.68A21.78,21.78,0,1,1,117.66,18.9,21.88,21.88,0,0,1,139.44,40.68Z"/><path class="cls-1" d="M96.46,34.5A25.44,25.44,0,1,1,71,9.07,25.56,25.56,0,0,1,96.46,34.5Z"/><path class="cls-2" d="M191.8,61.32a21.4,21.4,0,1,1-21.39-21.39A21.49,21.49,0,0,1,191.8,61.32Z"/><path class="cls-1" d="M51.63,57.7a25.5,25.5,0,1,1-25.5-25.5A25.62,25.62,0,0,1,51.63,57.7Z"/><path class="cls-2" d="M83.88,38A18.42,18.42,0,1,1,65.46,19.57,18.5,18.5,0,0,1,83.88,38Z"/><path class="cls-2" d="M66.94,51.49A18.42,18.42,0,1,1,48.52,33.07,18.5,18.5,0,0,1,66.94,51.49Z"/><path class="cls-2" d="M175.41,49.53a31.19,31.19,0,1,1-31.18-31.18A31.33,31.33,0,0,1,175.41,49.53Z"/><path class="cls-2" d="M121,34.53A24.08,24.08,0,1,1,96.91,10.46,24.19,24.19,0,0,1,121,34.53Z"/><path class="cls-3" d="M128.4,57.63A29.11,29.11,0,1,1,99.29,28.52,29.25,29.25,0,0,1,128.4,57.63Z"/><path class="cls-3" d="M154.37,65.62A23.12,23.12,0,1,1,131.26,42.5,23.22,23.22,0,0,1,154.37,65.62Z"/><path class="cls-2" d="M55.87,62.76A18.42,18.42,0,1,1,37.46,44.34,18.5,18.5,0,0,1,55.87,62.76Z"/><path class="cls-3" d="M86.55,66.63A20.35,20.35,0,1,1,66.21,46.29,20.44,20.44,0,0,1,86.55,66.63Z"/><path class="cls-3" d="M165,66.73A16.52,16.52,0,1,1,148.5,50.21,16.6,16.6,0,0,1,165,66.73Z"/></svg>