<svg width="682" height="686" viewBox="0 0 682 686" fill="none" xmlns="http://www.w3.org/2000/svg">
<path d="M492.658 332.83H205.887C193.754 332.83 183.827 322.845 183.827 310.642V22.1887C183.827 9.98491 193.754 0 205.887 0H492.658C504.79 0 514.717 9.98491 514.717 22.1887V310.642C514.717 322.845 504.79 332.83 492.658 332.83Z" fill="#096A62"/>
<path d="M273.903 258.868H141.547C129.414 258.868 119.488 248.883 119.488 236.679V103.547C119.488 91.3434 129.414 81.3585 141.547 81.3585H273.903C286.036 81.3585 295.962 91.3434 295.962 103.547V236.679C295.962 248.883 286.036 258.868 273.903 258.868Z" fill="#10A07D"/>
<path d="M540.453 282.906H472.437C460.304 282.906 450.377 272.921 450.377 260.717V192.302C450.377 180.098 460.304 170.113 472.437 170.113H540.453C552.585 170.113 562.512 180.098 562.512 192.302V260.717C562.512 272.921 552.585 282.906 540.453 282.906Z" fill="#10A07D"/>
<path d="M348.594 686H335.244C328.803 686 323.603 680.704 323.684 674.223L328.908 255.56C328.987 249.194 334.141 244.075 340.471 244.075H343.37C349.699 244.075 354.851 249.194 354.931 255.56L360.155 674.223C360.236 680.704 355.035 686 348.594 686Z" fill="#1F304E"/>
<path d="M345.489 320.913L338.704 328.553C335.43 332.24 331.54 334.097 330.057 332.68L234.178 241.161C232.72 239.769 234.136 235.738 237.353 232.116L238.827 230.455C242.044 226.833 245.866 224.965 247.404 226.265L348.592 311.806C350.16 313.13 348.763 317.226 345.489 320.913Z" fill="#1F304E"/>
<path d="M338.184 423.064L343.441 430.361C345.978 433.883 349.991 434.758 352.362 432.308L505.618 273.954C507.948 271.547 507.818 266.83 505.325 263.37L504.184 261.784C501.691 258.324 497.763 257.409 495.369 259.73L337.998 412.371C335.564 414.732 335.647 419.542 338.184 423.064Z" fill="#1F304E"/>
</svg>
