<svg width="174" height="174" viewBox="0 0 174 174" fill="none" xmlns="http://www.w3.org/2000/svg">
<path d="M82.7791 84.4205C105.995 84.4205 124.989 65.4259 124.989 42.2102C124.989 18.9946 105.995 0 82.7791 0C59.5635 0 40.5688 18.9946 40.5688 42.2102C40.5688 65.4259 59.5635 84.4205 82.7791 84.4205Z" fill="#096A62"/>
<path d="M118.892 65.6604C131.274 65.6604 141.404 55.5299 141.404 43.1482C141.404 30.7666 131.274 20.6361 118.892 20.6361C106.51 20.6361 96.3799 30.7666 96.3799 43.1482C96.3799 55.5299 106.51 65.6604 118.892 65.6604Z" fill="#10A07D"/>
<path d="M46.9003 73.6334C54.7678 73.6334 61.2049 67.1963 61.2049 59.3288C61.2049 51.4613 54.7678 45.0242 46.9003 45.0242C39.0328 45.0242 32.5957 51.4613 32.5957 59.3288C32.5957 67.1963 39.0328 73.6334 46.9003 73.6334Z" fill="#10A07D"/>
<path d="M82.9522 174H86.3581C88.0015 174 89.3283 172.657 89.3077 171.013L87.9748 64.8213C87.9546 63.207 86.6395 61.9083 85.0248 61.9083H84.2851C82.6704 61.9083 81.3558 63.207 81.3356 64.8213L80.0027 171.013C79.982 172.657 81.3089 174 82.9522 174Z" fill="#1F304E"/>
<path d="M83.744 81.3977L85.4751 83.3356C86.3104 84.2708 87.3028 84.7417 87.6813 84.382L112.143 61.1687C112.515 60.816 112.154 59.7936 111.333 58.8748L110.957 58.4536C110.136 57.5349 109.161 57.0612 108.769 57.3909L82.9523 79.0874C82.5522 79.4237 82.9087 80.4625 83.744 81.3977Z" fill="#1F304E"/>
<path d="M84.7668 95.6906L83.3391 97.4447C82.6497 98.2912 81.7178 98.6158 81.2666 98.1665L52.1232 69.1483C51.68 68.7074 51.8681 67.6836 52.5449 66.8525L52.8554 66.4712C53.5321 65.6397 54.4467 65.3091 54.9068 65.7293L85.1678 93.3751C85.6363 93.8028 85.4557 94.844 84.7668 95.6906Z" fill="#1F304E"/>
</svg>
