<svg width="164" height="164" viewBox="0 0 164 164" fill="none" xmlns="http://www.w3.org/2000/svg">
<path d="M163.915 99.4536V104.808C163.915 111.314 158.642 116.592 152.131 116.592H17.2227C10.7167 116.592 5.43896 111.314 5.43896 104.808V99.3813C5.50143 85.9066 16.4438 74.9951 29.9329 74.9951C32.457 74.9951 34.8916 75.3774 37.1771 76.084C42.1674 62.3835 55.305 52.6023 70.729 52.6023C82.4676 52.6023 92.8831 58.2669 99.3899 67.0133C103.34 65.1462 107.758 64.0978 112.42 64.0978C125.481 64.0978 136.631 72.3091 140.973 83.8543C142.012 83.6835 143.079 83.5932 144.168 83.5932C149.535 83.5932 154.403 85.735 157.962 89.2134C161.521 91.2378 163.915 95.0669 163.915 99.4536Z" fill="#58A097" fill-opacity="0.2"/>
<path d="M158.647 94.1856V99.5401C158.647 106.046 153.374 111.324 146.863 111.324H11.9546C5.44868 111.324 0.170898 106.046 0.170898 99.5401V94.1133C0.233362 80.6386 11.1757 69.7271 24.6648 69.7271C27.1889 69.7271 29.6235 70.1094 31.9091 70.816C36.8993 57.1155 50.037 47.3343 65.4609 47.3343C77.1995 47.3343 87.6151 52.9989 94.1218 61.7453C98.072 59.8782 102.49 58.8298 107.152 58.8298C120.213 58.8298 131.363 67.0411 135.705 78.5863C136.744 78.4155 137.811 78.3252 138.9 78.3252C144.267 78.3252 149.135 80.467 152.694 83.9454C156.253 85.9698 158.647 89.7989 158.647 94.1856Z" fill="white"/>
</svg>
