<svg width="148" height="148" viewBox="0 0 148 148" fill="none" xmlns="http://www.w3.org/2000/svg">
<path d="M128.465 87.7534C125.729 66.7931 106.531 50.55 83.2547 50.55C66.1479 50.55 51.2415 59.3207 43.4592 72.2932C41.5872 72.0117 39.668 71.8638 37.7058 71.8638C19.2272 71.8638 4.20123 84.8825 3.69678 101.104H147.895C144.282 94.5625 137.154 89.583 128.465 87.7534Z" fill="#58A097" fill-opacity="0.2"/>
<path d="M124.795 84.0828C122.059 63.1224 102.86 46.8793 79.5843 46.8793C62.4776 46.8793 47.5711 55.65 39.7888 68.6226C37.9168 68.341 35.9976 68.1931 34.0354 68.1931C15.5568 68.1931 0.530818 81.2118 0.0263672 97.4334H144.225C140.611 90.8918 133.483 85.9124 124.795 84.0828Z" fill="white"/>
</svg>
