<svg id="Layer_1" data-name="Layer 1" xmlns="http://www.w3.org/2000/svg" viewBox="0 0 1717 140.84"><defs><style>.cls-1{fill:#8fc57b;}.cls-2{fill:#64b87b;}.cls-3{fill:#222a31;}.cls-3,.cls-4{fill-rule:evenodd;}.cls-4{fill:#2c3c46;}</style></defs><path class="cls-1" d="M1818,0H-101V15.29H1818Z"/><path class="cls-2" d="M1818,15.29H-101V52.36H1818Z"/><path class="cls-3" d="M101,51.75l50.5-21.07L202,51.75l50.5-21.07L303,51.75l50.5-21.07L404,51.75l50.5-21.07L505,51.75l50.5-21.07L606,51.75l50.5-21.07L707,51.75l50.5-21.07L808,51.75l50.5-21.07L909,51.75l50.5-21.07L1010,51.75l50.5-21.07L1111,51.75l50.5-21.07L1212,51.75l50.5-21.07L1313,51.75l50.5-21.07L1414,51.75l50.5-21.07L1515,51.75l50.5-21.07L1616,51.75l50.5-21.07L1717,51.75l50.5-21.07L1818,51.75v89.09H-101V51.75l50.5-21.07L0,51.75,50.5,30.68Z"/><path class="cls-4" d="M1786.48,129.32h-.37a10.73,10.73,0,1,1,0-21.46h.37V97.35a15,15,0,0,0-15-14.92h-1889a15,15,0,0,0-15,14.92v43.89h1919ZM715.42,135.78a10.31,10.31,0,1,1,10.36-10.31A10.34,10.34,0,0,1,715.42,135.78Zm-236.83-20A9.14,9.14,0,1,1,469.4,125,9.17,9.17,0,0,1,478.59,115.82Zm461.2,17.64a5.82,5.82,0,1,1,5.85-5.82A5.84,5.84,0,0,1,939.79,133.46ZM20.52,111.83A9.43,9.43,0,1,1,11,121.27,9.47,9.47,0,0,1,20.52,111.83Zm1474.8,18.35a6.67,6.67,0,1,0-6.69-6.68A6.7,6.7,0,0,0,1495.32,130.18Zm-173.7-1.69a6.67,6.67,0,1,1,6.7-6.66A6.68,6.68,0,0,1,1321.62,128.49ZM-106.47,111.83a8.06,8.06,0,0,1,8.07,8,8.06,8.06,0,0,1-8.07,8,8.06,8.06,0,0,1-8.08-8A8.06,8.06,0,0,1-106.47,111.83Zm513.07-2.22a9.15,9.15,0,1,1-9.19,9.14A9.17,9.17,0,0,1,406.6,109.61Zm624.22,18a10.73,10.73,0,1,1,10.8-10.73A10.75,10.75,0,0,1,1030.82,127.64Zm577.87-.49a7.66,7.66,0,1,0-7.69-7.66A7.68,7.68,0,0,0,1608.69,127.15Zm82.7-.47a12.62,12.62,0,1,0-12.67-12.62A12.66,12.66,0,0,0,1691.39,126.68Zm-483.14-1.21a7.66,7.66,0,1,1,7.7-7.65A7.67,7.67,0,0,1,1208.25,125.47Zm-82.71-.47a12.62,12.62,0,1,1,12.69-12.61A12.65,12.65,0,0,1,1125.54,125ZM621.71,109.61a7.68,7.68,0,1,1-7.71,7.67A7.7,7.7,0,0,1,621.71,109.61ZM155.48,97a12.61,12.61,0,1,1-12.67,12.61A12.65,12.65,0,0,1,155.48,97Zm-226,9.82a4.51,4.51,0,0,1,4.52,4.5,4.51,4.51,0,0,1-4.52,4.5,4.51,4.51,0,0,1-4.51-4.5A4.51,4.51,0,0,1-70.51,106.82ZM250.2,94.34a10.74,10.74,0,1,1-10.79,10.74A10.77,10.77,0,0,1,250.2,94.34Zm1101.34,20.82a4.49,4.49,0,1,1,4.51-4.49A4.51,4.51,0,0,1,1351.54,115.16Zm-692.22-2.77a7.68,7.68,0,1,1,7.72-7.68A7.7,7.7,0,0,1,659.32,112.39Zm215.11,0a9.15,9.15,0,1,1,9.19-9.15A9.17,9.17,0,0,1,874.43,112.39ZM72.78,96.52a7.66,7.66,0,1,1-7.7,7.66A7.68,7.68,0,0,1,72.78,96.52Zm1483.65,15.31a9.43,9.43,0,1,0-9.48-9.42A9.46,9.46,0,0,0,1556.43,111.83Zm-168.92-1.67a8,8,0,1,1,8.06-8A8.06,8.06,0,0,1,1387.51,110.16Zm-127,0a9.43,9.43,0,1,1,9.49-9.43A9.46,9.46,0,0,1,1260.51,110.16ZM-40.59,93.5a6.68,6.68,0,0,1,6.7,6.66,6.68,6.68,0,0,1-6.7,6.66,6.68,6.68,0,0,1-6.7-6.66A6.68,6.68,0,0,1-40.59,93.5Zm606.21-7.29a10.31,10.31,0,1,1-10.37,10.31A10.35,10.35,0,0,1,565.62,86.21Zm236.82,20A9.15,9.15,0,1,1,811.63,97,9.18,9.18,0,0,1,802.44,106.18ZM341.24,88.54a5.81,5.81,0,1,1-5.84,5.8A5.82,5.82,0,0,1,341.24,88.54Z"/></svg>