<svg width="1920" height="142" viewBox="0 0 1920 142" fill="none" xmlns="http://www.w3.org/2000/svg">
<path d="M1919 0.97998H0V16.2666H1919V0.97998Z" fill="#8FC57B"/>
<path d="M1919 16.2667H0V53.3392H1919V16.2667Z" fill="#64B87B"/>
<path fill-rule="evenodd" clip-rule="evenodd" d="M202 52.7305L252.5 31.6635L303 52.7305L353.5 31.6635L404 52.7305L454.5 31.6635L505 52.7305L555.5 31.6635L606 52.7305L656.5 31.6635L707 52.7305L757.5 31.6635L808 52.7305L858.5 31.6635L909 52.7305L959.5 31.6635L1010 52.7305L1060.5 31.6635L1111 52.7305L1161.5 31.6635L1212 52.7305L1262.5 31.6635L1313 52.7305L1363.5 31.6635L1414 52.7305L1464.5 31.6635L1515 52.7305L1565.5 31.6635L1616 52.7305L1666.5 31.6635L1717 52.7305L1767.5 31.6635L1818 52.7305L1868.5 31.6635L1919 52.7305V141.822H0.000244141V52.7305L50.4998 31.6635L101 52.7305L151.5 31.6635L202 52.7305Z" fill="#222A31"/>
<path fill-rule="evenodd" clip-rule="evenodd" d="M1919 129.905C1918.88 129.905 1918.76 129.905 1918.63 129.905C1912.68 129.905 1907.85 125.093 1907.85 119.167C1907.85 113.252 1912.68 108.44 1918.63 108.44C1918.76 108.44 1918.88 108.44 1919 108.44V97.9311C1919 89.6892 1912.28 83.0181 1904.01 83.0181H14.9922C6.7125 83.0181 0 89.6892 0 97.9311V141.825H1919V129.905ZM847.934 136.367C842.215 136.367 837.573 131.744 837.573 126.057C837.573 120.37 842.215 115.747 847.934 115.747C853.653 115.747 858.296 120.37 858.296 126.057C858.296 131.744 853.653 136.367 847.934 136.367ZM611.109 116.403C616.183 116.403 620.302 120.499 620.302 125.54C620.302 130.59 616.183 134.687 611.109 134.687C606.035 134.687 601.915 130.59 601.915 125.54C601.915 120.499 606.035 116.403 611.109 116.403ZM1072.31 134.04C1069.08 134.04 1066.46 131.436 1066.46 128.224C1066.46 125.023 1069.08 122.418 1072.31 122.418C1075.54 122.418 1078.16 125.023 1078.16 128.224C1078.16 131.436 1075.54 134.04 1072.31 134.04ZM153.032 112.417C158.265 112.417 162.512 116.642 162.512 121.852C162.512 127.051 158.265 131.277 153.032 131.277C147.8 131.277 143.552 127.051 143.552 121.852C143.552 116.642 147.8 112.417 153.032 112.417ZM1627.84 130.76C1631.54 130.76 1634.54 127.767 1634.54 124.088C1634.54 120.41 1631.54 117.427 1627.84 117.427C1624.14 117.427 1621.15 120.41 1621.15 124.088C1621.15 127.767 1624.14 130.76 1627.84 130.76ZM1454.14 129.079C1450.44 129.079 1447.44 126.097 1447.44 122.418C1447.44 118.74 1450.44 115.747 1454.14 115.747C1457.84 115.747 1460.84 118.74 1460.84 122.418C1460.84 126.097 1457.84 129.079 1454.14 129.079ZM26.0434 112.417C30.5011 112.417 34.1192 116.016 34.1192 120.45C34.1192 124.884 30.5011 128.483 26.0434 128.483C21.5868 128.483 17.9686 124.884 17.9686 120.45C17.9686 116.016 21.5868 112.417 26.0434 112.417ZM539.119 110.19C544.195 110.19 548.314 114.286 548.314 119.336C548.314 124.387 544.195 128.483 539.119 128.483C534.044 128.483 529.924 124.387 529.924 119.336C529.924 114.286 534.044 110.19 539.119 110.19ZM1163.34 128.224C1157.39 128.224 1152.56 123.422 1152.56 117.497C1152.56 111.572 1157.39 106.76 1163.34 106.76C1169.3 106.76 1174.14 111.572 1174.14 117.497C1174.14 123.422 1169.3 128.224 1163.34 128.224ZM1741.21 127.737C1745.46 127.737 1748.91 124.307 1748.91 120.072C1748.91 115.847 1745.46 112.417 1741.21 112.417C1736.97 112.417 1733.52 115.847 1733.52 120.072C1733.52 124.307 1736.97 127.737 1741.21 127.737ZM1823.91 127.26C1830.91 127.26 1836.59 121.603 1836.59 114.644C1836.59 107.684 1830.91 102.037 1823.91 102.037C1816.91 102.037 1811.24 107.684 1811.24 114.644C1811.24 121.603 1816.91 127.26 1823.91 127.26ZM1340.77 126.057C1336.52 126.057 1333.08 122.627 1333.08 118.402C1333.08 114.176 1336.52 110.746 1340.77 110.746C1345.02 110.746 1348.47 114.176 1348.47 118.402C1348.47 122.627 1345.02 126.057 1340.77 126.057ZM1258.06 125.58C1251.07 125.58 1245.39 119.933 1245.39 112.973C1245.39 106.014 1251.07 100.357 1258.06 100.357C1265.06 100.357 1270.75 106.014 1270.75 112.973C1270.75 119.933 1265.06 125.58 1258.06 125.58ZM754.231 110.19C758.491 110.19 761.949 113.63 761.949 117.865C761.949 122.1 758.491 125.54 754.231 125.54C749.972 125.54 746.514 122.1 746.514 117.865C746.514 113.63 749.972 110.19 754.231 110.19ZM288 97.5831C294.995 97.5831 300.675 103.23 300.675 110.19C300.675 117.149 294.995 122.796 288 122.796C281.004 122.796 275.324 117.149 275.324 110.19C275.324 103.23 281.004 97.5831 288 97.5831ZM62.0107 107.406C64.5044 107.406 66.5294 109.424 66.5294 111.9C66.5294 114.385 64.5044 116.403 62.0107 116.403C59.516 116.403 57.4921 114.385 57.4921 111.9C57.4921 109.424 59.516 107.406 62.0107 107.406ZM382.721 94.9286C388.676 94.9286 393.511 99.7406 393.511 105.666C393.511 111.591 388.676 116.403 382.721 116.403C376.765 116.403 371.93 111.591 371.93 105.666C371.93 99.7406 376.765 94.9286 382.721 94.9286ZM1484.06 115.747C1481.57 115.747 1479.54 113.739 1479.54 111.253C1479.54 108.778 1481.57 106.76 1484.06 106.76C1486.56 106.76 1488.57 108.778 1488.57 111.253C1488.57 113.739 1486.56 115.747 1484.06 115.747ZM791.836 112.973C787.577 112.973 784.119 109.533 784.119 105.298C784.119 101.053 787.577 97.613 791.836 97.613C796.095 97.613 799.554 101.053 799.554 105.298C799.554 109.533 796.095 112.973 791.836 112.973ZM1006.95 112.973C1001.87 112.973 997.752 108.877 997.752 103.827C997.752 98.7762 1001.87 94.68 1006.95 94.68C1012.02 94.68 1016.14 98.7762 1016.14 103.827C1016.14 108.877 1012.02 112.973 1006.95 112.973ZM205.298 97.1059C209.547 97.1059 212.997 100.536 212.997 104.761C212.997 108.987 209.547 112.417 205.298 112.417C201.049 112.417 197.599 108.987 197.599 104.761C197.599 100.536 201.049 97.1059 205.298 97.1059ZM1688.95 112.417C1694.18 112.417 1698.43 108.191 1698.43 102.992C1698.43 97.7819 1694.18 93.5566 1688.95 93.5566C1683.71 93.5566 1679.47 97.7819 1679.47 102.992C1679.47 108.191 1683.71 112.417 1688.95 112.417ZM1520.03 110.746C1515.57 110.746 1511.95 107.147 1511.95 102.713C1511.95 98.2791 1515.57 94.68 1520.03 94.68C1524.49 94.68 1528.09 98.2791 1528.09 102.713C1528.09 107.147 1524.49 110.746 1520.03 110.746ZM1393.03 110.746C1387.81 110.746 1383.56 106.521 1383.56 101.311C1383.56 96.1117 1387.81 91.8864 1393.03 91.8864C1398.27 91.8864 1402.52 96.1117 1402.52 101.311C1402.52 106.521 1398.27 110.746 1393.03 110.746ZM91.9271 94.0835C95.6252 94.0835 98.6276 97.0662 98.6276 100.745C98.6276 104.423 95.6252 107.406 91.9271 107.406C88.229 107.406 85.2266 104.423 85.2266 100.745C85.2266 97.0662 88.229 94.0835 91.9271 94.0835ZM698.132 86.7961C703.851 86.7961 708.495 91.4191 708.495 97.1059C708.495 102.793 703.851 107.406 698.132 107.406C692.414 107.406 687.771 102.793 687.771 97.1059C687.771 91.4191 692.414 86.7961 698.132 86.7961ZM934.958 106.76C929.885 106.76 925.765 102.664 925.765 97.613C925.765 92.5724 929.885 88.4763 934.958 88.4763C940.032 88.4763 944.151 92.5724 944.151 97.613C944.151 102.664 940.032 106.76 934.958 106.76ZM473.756 89.1225C476.982 89.1225 479.599 91.7273 479.599 94.9286C479.599 98.1399 476.982 100.745 473.756 100.745C470.532 100.745 467.913 98.1399 467.913 94.9286C467.913 91.7273 470.532 89.1225 473.756 89.1225Z" fill="#2C3C46"/>
</svg>
