<svg width="548" height="548" viewBox="0 0 548 548" fill="none" xmlns="http://www.w3.org/2000/svg">
<circle cx="274" cy="274" r="274" fill="#222A31"/>
<circle cx="274" cy="274" r="226" fill="#2C3C46"/>
<circle cx="277.961" cy="453.283" r="7.1285" fill="#222A31"/>
<circle cx="348.487" cy="192.103" r="7.18377" transform="rotate(82.1624 348.487 192.103)" fill="#222A31"/>
<circle cx="338.069" cy="342.464" r="7.18377" transform="rotate(34.5929 338.069 342.464)" fill="#222A31"/>
<circle cx="135.126" cy="305.697" r="6.86449" fill="#222A31"/>
<circle cx="264.222" cy="124.884" r="6.84168" transform="rotate(82.1624 264.222 124.884)" fill="#222A31"/>
<circle cx="342.766" cy="253.41" r="6.84168" transform="rotate(34.5929 342.766 253.41)" fill="#222A31"/>
<ellipse cx="257.895" cy="209.579" rx="7.1285" ry="7.39252" fill="#222A31"/>
<circle cx="339.592" cy="133.265" r="7.18377" transform="rotate(82.1624 339.592 133.265)" fill="#222A31"/>
<circle cx="400.904" cy="267.325" r="7.18377" transform="rotate(34.5929 400.904 267.325)" fill="#222A31"/>
<circle cx="438.179" cy="305.113" r="7.18377" transform="rotate(34.5929 438.179 305.113)" fill="#222A31"/>
<circle cx="457.189" cy="269.207" r="7.18377" transform="rotate(34.5929 457.189 269.207)" fill="#222A31"/>
<ellipse cx="95.2596" cy="273.208" rx="6.60047" ry="7.1285" fill="#222A31"/>
<ellipse cx="162.32" cy="246.806" rx="6.60047" ry="7.1285" fill="#222A31"/>
<ellipse cx="298.867" cy="133.237" rx="6.84168" ry="7.18377" transform="rotate(82.1624 298.867 133.237)" fill="#222A31"/>
<ellipse cx="365.442" cy="226.596" rx="6.84168" ry="7.18377" transform="rotate(34.5929 365.442 226.596)" fill="#222A31"/>
<ellipse cx="239.414" cy="273.472" rx="7.1285" ry="6.86449" fill="#222A31"/>
<ellipse cx="291.077" cy="109.267" rx="7.1285" ry="6.86449" fill="#222A31"/>
<ellipse cx="317.237" cy="173.872" rx="7.18377" ry="6.84168" transform="rotate(82.1624 317.237 173.872)" fill="#222A31"/>
<ellipse cx="296.471" cy="217.177" rx="7.18377" ry="6.84168" transform="rotate(34.5929 296.471 217.177)" fill="#222A31"/>
<ellipse cx="401.023" cy="195.001" rx="7.18377" ry="6.84168" transform="rotate(34.5929 401.023 195.001)" fill="#222A31"/>
<circle cx="181.066" cy="319.954" r="4.75234" fill="#222A31"/>
<circle cx="255.218" cy="144.77" r="4.78918" transform="rotate(82.1624 255.218 144.77)" fill="#222A31"/>
<circle cx="338.538" cy="91.9444" r="4.78918" transform="rotate(82.1624 338.538 91.9444)" fill="#222A31"/>
<circle cx="351.37" cy="273.472" r="4.78918" transform="rotate(34.5929 351.37 273.472)" fill="#222A31"/>
<circle cx="397.358" cy="348.272" r="4.78918" transform="rotate(34.5929 397.358 348.272)" fill="#222A31"/>
<circle cx="434.688" cy="220.647" r="4.78918" transform="rotate(34.5929 434.688 220.647)" fill="#222A31"/>
<circle cx="480.677" cy="295.447" r="4.78918" transform="rotate(34.5929 480.677 295.447)" fill="#222A31"/>
<circle cx="208.524" cy="319.954" r="4.75234" fill="#222A31"/>
<circle cx="217.848" cy="189.404" r="4.78918" transform="rotate(82.1624 217.848 189.404)" fill="#222A31"/>
<circle cx="373.898" cy="289.009" r="4.78918" transform="rotate(34.5929 373.898 289.009)" fill="#222A31"/>
<circle cx="419.887" cy="363.809" r="4.78918" transform="rotate(34.5929 419.887 363.809)" fill="#222A31"/>
<circle cx="457.218" cy="236.184" r="4.78918" transform="rotate(34.5929 457.218 236.184)" fill="#222A31"/>
<ellipse cx="129.318" cy="355.596" rx="5.80841" ry="6.07243" fill="#222A31"/>
<ellipse cx="237.81" cy="133.699" rx="5.81543" ry="6.15752" transform="rotate(82.1624 237.81 133.699)" fill="#222A31"/>
<ellipse cx="293.256" cy="256.005" rx="5.81543" ry="6.15752" transform="rotate(34.5929 293.256 256.005)" fill="#222A31"/>
<circle cx="230.173" cy="356.915" r="4.75234" fill="#222A31"/>
<circle cx="189.114" cy="155.881" r="4.78918" transform="rotate(82.1624 189.114 155.881)" fill="#222A31"/>
<circle cx="198.776" cy="97.6135" r="4.78918" transform="rotate(136.444 198.776 97.6135)" fill="#222A31"/>
<circle cx="395.355" cy="158.733" r="4.78918" transform="rotate(136.444 395.355 158.733)" fill="#222A31"/>
<circle cx="417.951" cy="335.578" r="4.78918" transform="rotate(34.5929 417.951 335.578)" fill="#222A31"/>
<ellipse cx="164.697" cy="378.829" rx="4.75234" ry="4.48832" fill="#222A31"/>
<ellipse cx="195.03" cy="136.48" rx="4.78918" ry="4.44709" transform="rotate(82.1624 195.03 136.48)" fill="#222A31"/>
<ellipse cx="217.981" cy="91.0909" rx="4.78918" ry="4.44709" transform="rotate(136.444 217.981 91.0909)" fill="#222A31"/>
<ellipse cx="414.56" cy="152.21" rx="4.78918" ry="4.44709" transform="rotate(136.444 414.56 152.21)" fill="#222A31"/>
<ellipse cx="130.279" cy="213.423" rx="4.78918" ry="4.44709" transform="rotate(126.833 130.279 213.423)" fill="#222A31"/>
<ellipse cx="390.744" cy="439.715" rx="4.78918" ry="4.44709" transform="rotate(126.833 390.744 439.715)" fill="#222A31"/>
<ellipse cx="307.86" cy="296.433" rx="4.78918" ry="4.44709" transform="rotate(34.5929 307.86 296.433)" fill="#222A31"/>
<ellipse cx="196.379" cy="414.472" rx="7.39252" ry="6.86449" fill="#222A31"/>
<ellipse cx="163.785" cy="172.895" rx="7.18377" ry="6.84168" transform="rotate(82.1624 163.785 172.895)" fill="#222A31"/>
<ellipse cx="82.4567" cy="217.353" rx="7.18377" ry="6.84168" transform="rotate(126.833 82.4567 217.353)" fill="#222A31"/>
<ellipse cx="342.923" cy="443.645" rx="7.18377" ry="6.84168" transform="rotate(126.833 342.923 443.645)" fill="#222A31"/>
<ellipse cx="319.176" cy="407.799" rx="7.18377" ry="6.84168" transform="rotate(34.5929 319.176 407.799)" fill="#222A31"/>
<circle cx="151.231" cy="425.297" r="4.48832" fill="#222A31"/>
<circle cx="147.121" cy="129.608" r="4.44709" transform="rotate(82.1624 147.121 129.608)" fill="#222A31"/>
<circle cx="101.039" cy="174.854" r="4.44709" transform="rotate(126.833 101.039 174.854)" fill="#222A31"/>
<circle cx="361.505" cy="401.146" r="4.44709" transform="rotate(126.833 361.505 401.146)" fill="#222A31"/>
<circle cx="267.245" cy="343.028" r="4.44709" transform="rotate(34.5929 267.245 343.028)" fill="#222A31"/>
<ellipse cx="176.577" cy="418.696" rx="4.48832" ry="4.75234" fill="#222A31"/>
<ellipse cx="157.012" cy="153.799" rx="4.44709" ry="4.78918" transform="rotate(82.1624 157.012 153.799)" fill="#222A31"/>
<ellipse cx="274.249" cy="377.937" rx="4.44709" ry="4.78918" transform="rotate(34.5929 274.249 377.937)" fill="#222A31"/>
<ellipse cx="201.344" cy="238.972" rx="6.84168" ry="7.18377" transform="rotate(82.1624 201.344 238.972)" fill="#222A31"/>
<ellipse cx="224.1" cy="428.464" rx="6.60047" ry="7.1285" fill="#222A31"/>
<ellipse cx="253.008" cy="74.7672" rx="6.84168" ry="7.18377" transform="rotate(82.1624 253.008 74.7672)" fill="#222A31"/>
<ellipse cx="392.486" cy="384.125" rx="6.84168" ry="7.18377" transform="rotate(34.5929 392.486 384.125)" fill="#222A31"/>
</svg>
