<svg width="1343" height="1311" viewBox="0 0 1343 1311" fill="none" xmlns="http://www.w3.org/2000/svg">
<g clip-path="url(#clip0_311_16354)">
<path d="M685.054 1253.19C685.054 1250.03 687.595 1247.47 690.729 1247.47C693.863 1247.47 696.404 1250.03 696.404 1253.19C696.404 1256.35 693.863 1258.91 690.729 1258.91C687.595 1258.91 685.054 1256.35 685.054 1253.19Z" fill="#10A07D"/>
<g opacity="0.15">
<g opacity="0.15">
<path opacity="0.15" d="M688.651 1258.55C687.186 1257.51 686.228 1255.79 686.228 1253.85C686.228 1250.67 688.784 1248.1 691.936 1248.1C692.693 1248.1 693.415 1248.24 694.076 1248.51C693.147 1247.85 692.014 1247.47 690.791 1247.47C687.638 1247.47 685.083 1250.04 685.083 1253.22C685.083 1255.63 686.559 1257.7 688.651 1258.55Z" fill="black"/>
</g>
</g>
<path d="M710.374 1258.11C710.374 1255.73 712.289 1253.8 714.652 1253.8C717.015 1253.8 718.931 1255.73 718.931 1258.11C718.931 1260.5 717.015 1262.43 714.652 1262.43C712.289 1262.43 710.374 1260.5 710.374 1258.11Z" fill="#10A07D"/>
<g opacity="0.15">
<g opacity="0.15">
<path opacity="0.15" d="M713.086 1262.16C711.981 1261.38 711.26 1260.08 711.26 1258.61C711.26 1256.22 713.186 1254.28 715.563 1254.28C716.133 1254.28 716.677 1254.39 717.176 1254.59C716.475 1254.09 715.621 1253.8 714.699 1253.8C712.323 1253.8 710.396 1255.74 710.396 1258.14C710.396 1259.96 711.509 1261.52 713.086 1262.16Z" fill="black"/>
</g>
</g>
<path d="M703.575 1249.3L704.219 1248.58C704.53 1248.23 704.9 1248.05 705.041 1248.18L714.149 1256.9C714.287 1257.03 714.153 1257.41 713.847 1257.76L713.707 1257.91C713.401 1258.26 713.038 1258.44 712.892 1258.31L703.28 1250.17C703.131 1250.05 703.264 1249.66 703.575 1249.3Z" fill="#1F304E"/>
<path d="M703.955 1240.95L703.423 1240.29C703.167 1239.97 702.82 1239.85 702.652 1240.02L691.801 1250.91C691.636 1251.07 691.706 1251.46 691.958 1251.77L692.073 1251.91C692.325 1252.23 692.666 1252.35 692.837 1252.19L704.104 1241.82C704.279 1241.66 704.211 1241.27 703.955 1240.95Z" fill="#1F304E"/>
<path d="M685.005 1291.6C685.005 1280.94 693.577 1272.31 704.15 1272.31C714.724 1272.31 723.296 1280.94 723.296 1291.6C723.296 1302.26 714.724 1310.9 704.15 1310.9C693.577 1310.9 685.005 1302.26 685.005 1291.6Z" fill="#096A62"/>
<g opacity="0.15">
<g opacity="0.15">
<path opacity="0.15" d="M696.801 1309.49C691.885 1306 688.674 1300.24 688.674 1293.71C688.674 1283.06 697.246 1274.42 707.82 1274.42C710.358 1274.42 712.78 1274.92 714.996 1275.82C711.88 1273.61 708.08 1272.31 703.978 1272.31C693.404 1272.31 684.832 1280.94 684.832 1291.6C684.832 1299.7 689.783 1306.63 696.801 1309.49Z" fill="black"/>
</g>
</g>
<path d="M703.534 1182L704.692 1182C705.251 1182 705.702 1183.14 705.695 1184.54L705.242 1274.73C705.235 1276.11 704.788 1277.21 704.239 1277.21L703.987 1277.21C703.438 1277.21 702.991 1276.11 702.985 1274.73L702.531 1184.54C702.524 1183.14 702.975 1182 703.534 1182Z" fill="#1F304E"/>
</g>
<circle cx="698" cy="726" r="515" fill="#47BB83"/>
<rect x="522.631" y="284.169" width="7.24329" height="25.322" fill="#1A3C2E"/>
<rect x="631.28" y="232.721" width="7.24329" height="25.322" fill="#1A3C2E"/>
<rect x="873.93" y="267.288" width="4.42645" height="25.322" fill="#1A3C2E"/>
<rect x="634.499" y="222.271" width="1.20723" height="25.322" fill="#1A3C2E"/>
<path d="M789.273 79.3242H767.041V81.4517H789.273V79.3242Z" fill="#1A3D2E"/>
<path d="M782.381 56.2715V80.1406H782.775V56.2715H782.381Z" fill="#1A3D2E"/>
<path d="M792.242 81.4697H764.073V275.729H792.242V81.4697Z" fill="#7DA197"/>
<path d="M788.121 81.4697L770.76 275.729H790.96L788.121 81.4697Z" fill="#1A3D2E"/>
<path d="M764.073 81.4697L770.76 275.729H764.073V81.4697Z" fill="#1A3D2E"/>
<path d="M659.712 95.4107C659.712 95.4107 674.714 90.547 679.569 95.4107V279.747H661.476L659.712 95.4107Z" fill="#7DA197"/>
<path d="M655.41 100.935H662.029L675.266 279.748H644.157C644.157 279.748 657.395 214.862 655.41 100.935Z" fill="#1A3D2E"/>
<path d="M821.454 138.354L819.089 162.646H817.522L814.539 130.629L797.876 309.491H804.788H831.204H838.116L821.454 138.354Z" fill="#1A3D2E"/>
<path d="M812.205 155.683L821.28 197.292L821.454 138.354L838.116 309.491H797.876L812.205 155.683Z" fill="#7DA197"/>
<path d="M812.205 155.683L807.544 309.49H797.876L812.205 155.683Z" fill="#1A3D2E"/>
<path d="M819.95 191.188L828.988 309.491H831.205L821.3 190.695L819.95 191.188Z" fill="#1A3D2E"/>
<path d="M722.224 121.072H694.86V309.49H722.224V121.072Z" fill="#7DA197"/>
<path d="M717.005 120.982H694.86V309.4H717.005V120.982Z" fill="#558B78"/>
<path d="M722.224 126.682H694.86V130.329H722.224V126.682Z" fill="#1A3D2E"/>
<path d="M722.224 133.168H694.86V136.815H722.224V133.168Z" fill="#1A3D2E"/>
<path d="M722.224 139.651H694.86V143.298H722.224V139.651Z" fill="#1A3D2E"/>
<path d="M722.224 146.134H694.86V149.781H722.224V146.134Z" fill="#1A3D2E"/>
<path d="M722.224 152.617H694.86V156.264H722.224V152.617Z" fill="#1A3D2E"/>
<path d="M722.224 159.104H694.86V162.75H722.224V159.104Z" fill="#1A3D2E"/>
<path d="M722.224 165.587H694.86V169.234H722.224V165.587Z" fill="#1A3D2E"/>
<path d="M722.224 172.07H694.86V175.717H722.224V172.07Z" fill="#1A3D2E"/>
<path d="M722.224 178.553H694.86V182.2H722.224V178.553Z" fill="#1A3D2E"/>
<path d="M722.224 185.04H694.86V188.687H722.224V185.04Z" fill="#1A3D2E"/>
<path d="M722.224 191.522H694.86V195.169H722.224V191.522Z" fill="#1A3D2E"/>
<path d="M722.224 198.006H694.86V201.653H722.224V198.006Z" fill="#1A3D2E"/>
<path d="M722.224 204.492H694.86V208.139H722.224V204.492Z" fill="#1A3D2E"/>
<path d="M722.224 210.976H694.86V214.623H722.224V210.976Z" fill="#1A3D2E"/>
<path d="M722.224 217.459H694.86V221.106H722.224V217.459Z" fill="#1A3D2E"/>
<path d="M722.224 223.941H694.86V227.588H722.224V223.941Z" fill="#1A3D2E"/>
<path d="M722.224 230.429H694.86V234.076H722.224V230.429Z" fill="#1A3D2E"/>
<path d="M722.224 236.911H694.86V240.558H722.224V236.911Z" fill="#1A3D2E"/>
<path d="M722.224 243.395H694.86V247.042H722.224V243.395Z" fill="#1A3D2E"/>
<path d="M722.224 249.878H694.86V253.525H722.224V249.878Z" fill="#1A3D2E"/>
<path d="M722.224 256.364H694.86V260.011H722.224V256.364Z" fill="#1A3D2E"/>
<path d="M722.224 262.848H694.86V266.495H722.224V262.848Z" fill="#1A3D2E"/>
<path d="M747.897 275.913H738.936V76.7295L747.897 88.1927V275.913Z" fill="#7DA197"/>
<path d="M738.975 275.913H734.492V50.5558L738.975 44.7559V275.913Z" fill="#1A3D2E"/>
<path d="M735.157 275.913H730.674V119.661L735.157 116.031V275.913Z" fill="#1A3D2E"/>
<path d="M746.678 168.014V275.913H755.643V174.742L746.678 168.014Z" fill="#7DA197"/>
<path d="M740.915 250.905H744.802V23.9392L740.915 21.1738V250.905Z" fill="#7DA197"/>
<path d="M741.559 0L738.976 0V226.969H741.559V0Z" fill="#7DA197"/>
<rect x="811.155" y="274.522" width="47.0813" height="34.9685" fill="#558B78"/>
<rect x="855.42" y="289.796" width="33.3996" height="19.6949" fill="#558B78"/>
<rect x="871.918" y="279.346" width="11.6697" height="15.6755" fill="#558B78"/>
<rect x="888.819" y="284.571" width="22.1323" height="21.3026" fill="#558B78"/>
<rect x="488.427" y="297.433" width="22.1323" height="10.8523" fill="#558B78"/>
<rect x="609.953" y="267.288" width="47.0814" height="42.2033" fill="#558B78"/>
<rect x="510.156" y="286.982" width="53.1174" height="22.5084" fill="#558B78"/>
<rect x="662.668" y="217.046" width="53.1174" height="65.9175" fill="#558B78"/>
<rect x="538.324" y="265.278" width="21.7298" height="22.5084" fill="#558B78"/>
<rect x="635.707" y="242.367" width="47.0813" height="42.2033" fill="#558B78"/>
<rect x="574.541" y="278.542" width="70.0184" height="30.9491" fill="#7DA197"/>
<rect x="484" y="302.256" width="70.0184" height="7.23486" fill="#7DA197"/>
<rect x="644.157" y="303.462" width="172.632" height="6.02905" fill="#7DA197"/>
<rect x="623.635" y="242.367" width="24.1443" height="25.322" fill="#1A3C2E"/>
<rect x="554.019" y="292.208" width="20.5226" height="17.2833" fill="#7DA197"/>
<rect x="593.052" y="238.75" width="24.1443" height="23.3123" fill="#7DA197"/>
<rect x="812.362" y="282.562" width="53.5198" height="26.9297" fill="#7DA197"/>
<rect width="53.5198" height="11.6562" transform="matrix(1 0 0 -1 865.882 309.491)" fill="#7DA197"/>
<rect x="838.116" y="262.062" width="24.1443" height="47.4285" fill="#7DA197"/>
<path d="M600.372 163.91V152.393L602.709 144.295L605.048 152.393V163.91L608.2 174.985H605.048H600.372H597.22L600.372 163.91Z" fill="#7DA197"/>
<path d="M584.201 178.711H621.22V309.49H584.201V178.711Z" fill="#7DA197"/>
<path d="M621.22 309.49V178.711L609.338 309.49H621.22Z" fill="#1A3D2E"/>
<path d="M584.201 309.49V178.711L596.083 309.49H584.201Z" fill="#1A3D2E"/>
<path d="M616.346 174.985V178.712L605.279 178.712V181.3H596.462V178.712H588.841V174.985H616.346Z" fill="#1A3D2E"/>
<path d="M603.921 181.3H608.015V183.888H603.921V181.3Z" fill="#1A3D2E"/>
<path d="M590.088 181.3H596.463V183.888H590.088V181.3Z" fill="#1A3D2E"/>
<path d="M584.201 181.3H586.348V183.888H584.201V181.3Z" fill="#1A3D2E"/>
<path d="M594.751 183.888H602.594V186.476H594.751V183.888Z" fill="#1A3D2E"/>
<path d="M589.572 186.476H593.094V189.064H589.572V186.476Z" fill="#1A3D2E"/>
<path d="M594.476 189.065H601.043V191.653H594.476V189.065Z" fill="#1A3D2E"/>
<path d="M588.197 191.653H597.01V194.241H588.197V191.653Z" fill="#1A3D2E"/>
<path d="M596.463 194.241H602.594V196.829H596.463V194.241Z" fill="#1A3D2E"/>
<path d="M584.2 178.711H591.035V181.299H584.2V178.711Z" fill="#1A3D2E"/>
<path d="M584.576 186.476H587.617V189.064H584.576V186.476Z" fill="#1A3D2E"/>
<path d="M599.91 186.476H604.979V189.064H599.91V186.476Z" fill="#1A3D2E"/>
<path d="M601.987 191.653H607.057V194.241H601.987V191.653Z" fill="#1A3D2E"/>
<path d="M584.2 183.888H590.331V186.476H584.2V183.888Z" fill="#1A3D2E"/>
<path d="M584.2 189.065H590.331V191.653H584.2V189.065Z" fill="#1A3D2E"/>
<path d="M584.2 194.241H590.331V196.829H584.2V194.241Z" fill="#1A3D2E"/>
<path d="M584.576 196.829H597.777V199.417H584.576V196.829Z" fill="#1A3D2E"/>
<path d="M584.198 199.417H592.191V202.005H584.198V199.417Z" fill="#1A3D2E"/>
<path d="M588.959 202.005H597.229V204.593H588.959V202.005Z" fill="#1A3D2E"/>
<path d="M584.199 204.593H590.521V207.181H584.199V204.593Z" fill="#1A3D2E"/>
<path d="M590.332 207.183H597.229V209.771H590.332V207.183Z" fill="#1A3D2E"/>
<path d="M584.201 209.771H591.517V212.358H584.201V209.771Z" fill="#1A3D2E"/>
<path d="M584.576 207.183H587.755V209.771H584.576V207.183Z" fill="#1A3D2E"/>
<path d="M590.33 212.358H595.47V214.946H590.33V212.358Z" fill="#1A3D2E"/>
<path d="M596.462 199.417H600.609V202.005H596.462V199.417Z" fill="#1A3D2E"/>
<path d="M601.7 202.005H605.967V204.593H601.7V202.005Z" fill="#1A3D2E"/>
<path d="M600.87 207.183H604.796V209.771H600.87V207.183Z" fill="#1A3D2E"/>
<path d="M595.47 214.946H600.668V217.534H595.47V214.946Z" fill="#1A3D2E"/>
<path d="M590.332 217.534H596.463V220.122H590.332V217.534Z" fill="#1A3D2E"/>
<path d="M595.469 220.122H600.609V222.71H595.469V220.122Z" fill="#1A3D2E"/>
<path d="M587.264 222.71H593.779V225.298H587.264V222.71Z" fill="#1A3D2E"/>
<path d="M589.543 227.888H595.674V230.476H589.543V227.888Z" fill="#1A3D2E"/>
<path d="M598.877 222.71H602.459V225.298H598.877V222.71Z" fill="#1A3D2E"/>
<path d="M596.611 227.888H600.192V230.476H596.611V227.888Z" fill="#1A3D2E"/>
<path d="M584.2 214.946H590.331V217.534H584.2V214.946Z" fill="#1A3D2E"/>
<path d="M584.198 230.477H592.191V233.064H584.198V230.477Z" fill="#1A3D2E"/>
<path d="M590.332 233.064H596.463V235.652H590.332V233.064Z" fill="#1A3D2E"/>
<path d="M584.201 235.652H591.312V238.24H584.201V235.652Z" fill="#1A3D2E"/>
<path d="M588.569 238.24H597.229V240.828H588.569V238.24Z" fill="#1A3D2E"/>
<path d="M589.545 243.416H596.463V246.004H589.545V243.416Z" fill="#1A3D2E"/>
<path d="M596.594 251.182H599.484V253.77H596.594V251.182Z" fill="#1A3D2E"/>
<path d="M590.332 253.77H596.463V256.357H590.332V253.77Z" fill="#1A3D2E"/>
<path d="M595.915 256.357H598.539V258.945H595.915V256.357Z" fill="#1A3D2E"/>
<path d="M590.332 258.945H596.463V261.533H590.332V258.945Z" fill="#1A3D2E"/>
<path d="M589.56 264.123H597.282V266.711H589.56V264.123Z" fill="#1A3D2E"/>
<path d="M584.2 246.006H590.331V248.594H584.2V246.006Z" fill="#1A3D2E"/>
<path d="M586.477 248.594H592.608V251.182H586.477V248.594Z" fill="#1A3D2E"/>
<path d="M596.462 235.652H600.609V238.24H596.462V235.652Z" fill="#1A3D2E"/>
<path d="M590.39 279.67H596.521V282.258H590.39V279.67Z" fill="#1A3D2E"/>
<path d="M588.464 275.787H594.595V278.375H588.464V275.787Z" fill="#1A3D2E"/>
<path d="M592.805 271.905H597.992V274.493H592.805V271.905Z" fill="#1A3D2E"/>
<path d="M589.599 268.005H594.786V270.593H589.599V268.005Z" fill="#1A3D2E"/>
<path d="M590.39 284.846H595.61V287.434H590.39V284.846Z" fill="#1A3D2E"/>
<path d="M591.999 287.436H597.633V290.023H591.999V287.436Z" fill="#1A3D2E"/>
<path d="M593.02 292.611H596.898V295.199H593.02V292.611Z" fill="#1A3D2E"/>
<path d="M590.767 300.375H596.898V302.963H590.767V300.375Z" fill="#1A3D2E"/>
<path d="M590.332 305.534H596.463V308.122H590.332V305.534Z" fill="#1A3D2E"/>
<path d="M567.673 208.15H566.116V223.522H567.673V208.15Z" fill="#1A3D2E"/>
<path d="M565.269 235.46H563.211V273.296H565.269V235.46Z" fill="#1A3D2E"/>
<path d="M564.972 235.872L564.243 236.603L569.48 241.854L570.208 241.124L564.972 235.872Z" fill="#1A3D2E"/>
<path d="M564.244 245.575L564.973 246.306L570.209 241.054L569.481 240.323L564.244 245.575Z" fill="#1A3D2E"/>
<path d="M564.972 244.817L564.243 245.548L569.48 250.8L570.208 250.069L564.972 244.817Z" fill="#1A3D2E"/>
<path d="M564.243 254.519L564.972 255.249L570.208 249.997L569.48 249.267L564.243 254.519Z" fill="#1A3D2E"/>
<path d="M564.973 253.763L564.245 254.493L569.482 259.745L570.21 259.014L564.973 253.763Z" fill="#1A3D2E"/>
<path d="M564.243 263.465L564.972 264.195L570.208 258.944L569.48 258.213L564.243 263.465Z" fill="#1A3D2E"/>
<path d="M564.972 262.708L564.244 263.438L569.481 268.69L570.209 267.96L564.972 262.708Z" fill="#1A3D2E"/>
<path d="M564.243 272.411L564.972 273.142L570.208 267.89L569.48 267.159L564.243 272.411Z" fill="#1A3D2E"/>
<path d="M570.578 235.46H568.521V273.296H570.578V235.46Z" fill="#1A3D2E"/>
<path d="M565.269 271.654H563.211V309.491H565.269V271.654Z" fill="#1A3D2E"/>
<path d="M564.972 272.065L564.243 272.796L569.48 278.048L570.208 277.317L564.972 272.065Z" fill="#1A3D2E"/>
<path d="M564.243 281.77L564.972 282.5L570.208 277.248L569.48 276.518L564.243 281.77Z" fill="#1A3D2E"/>
<path d="M564.971 281.012L564.242 281.742L569.479 286.994L570.207 286.263L564.971 281.012Z" fill="#1A3D2E"/>
<path d="M564.243 290.716L564.972 291.446L570.208 286.195L569.48 285.464L564.243 290.716Z" fill="#1A3D2E"/>
<path d="M564.972 289.957L564.244 290.688L569.481 295.939L570.209 295.209L564.972 289.957Z" fill="#1A3D2E"/>
<path d="M564.243 299.659L564.972 300.39L570.208 295.138L569.48 294.407L564.243 299.659Z" fill="#1A3D2E"/>
<path d="M564.972 298.902L564.244 299.633L569.481 304.885L570.209 304.154L564.972 298.902Z" fill="#1A3D2E"/>
<path d="M564.242 308.605L564.971 309.336L570.207 304.084L569.479 303.354L564.242 308.605Z" fill="#1A3D2E"/>
<path d="M570.578 271.654H568.521V309.491H570.578V271.654Z" fill="#1A3D2E"/>
<path d="M567.227 195.341H566.566V210.713H567.227L567.227 195.341Z" fill="#1A3D2E"/>
<path d="M566.896 237.088C571.118 237.088 574.541 233.655 574.541 229.42C574.541 225.185 571.118 221.752 566.896 221.752C562.673 221.752 559.25 225.185 559.25 229.42C559.25 233.655 562.673 237.088 566.896 237.088Z" fill="#1A3D2E"/>
<path d="M855.807 203.217H848.588V309.491H855.807V203.217Z" fill="#1A3D2E"/>
<path d="M861.858 216.259H842.543V222.633H861.858V216.259Z" fill="#1A3D2E"/>
<path d="M860.949 226.332H843.453V233.5H860.949V226.332Z" fill="#1A3D2E"/>
<path d="M858.034 206.811H846.361V216.469H858.034V206.811Z" fill="#1A3D2E"/>
<path d="M859.778 223.836H844.623V236H859.778V223.836Z" fill="#1A3D2E"/>
<path d="M852.703 180.47H851.693V204.177H852.703V180.47Z" fill="#1A3D2E"/>
<path d="M812.759 247.276H784.514V256.454H812.759V247.276Z" fill="#1A3C2E"/>
<path d="M763.334 260.021H759.298V262.06H763.334V260.021Z" fill="#1A3C2E"/>
<path d="M763.334 255.941H759.298V257.981H763.334V255.941Z" fill="#1A3C2E"/>
<path d="M763.334 251.862H759.298V253.902H763.334V251.862Z" fill="#1A3C2E"/>
<path d="M763.334 247.783H759.298V249.823H763.334V247.783Z" fill="#1A3C2E"/>
<path d="M763.334 243.704H759.298V245.744H763.334V243.704Z" fill="#1A3C2E"/>
<path d="M763.334 239.626H759.298V241.665H763.334V239.626Z" fill="#1A3C2E"/>
<path d="M763.334 235.547H759.298V237.586H763.334V235.547Z" fill="#1A3C2E"/>
<path d="M763.334 231.468H759.298V233.507H763.334V231.468Z" fill="#1A3C2E"/>
<path d="M763.334 227.389H759.298V229.428H763.334V227.389Z" fill="#1A3C2E"/>
<path d="M763.334 223.304H759.298V225.343H763.334V223.304Z" fill="#1A3C2E"/>
<path d="M812.764 255.435H759.298V309.486H812.764V255.435Z" fill="#7EA296"/>
<path d="M707.843 258.493H703.808V260.533H707.843V258.493Z" fill="#1A3C2E"/>
<path d="M707.843 254.414H703.808V256.454H707.843V254.414Z" fill="#1A3C2E"/>
<path d="M707.843 250.336H703.808V252.375H707.843V250.336Z" fill="#1A3C2E"/>
<path d="M707.843 246.257H703.808V248.296H707.843V246.257Z" fill="#1A3C2E"/>
<path d="M707.843 242.178H703.808V244.217H707.843V242.178Z" fill="#1A3C2E"/>
<path d="M707.843 238.093H703.808V240.132H707.843V238.093Z" fill="#1A3C2E"/>
<path d="M707.843 234.014H703.808V236.053H707.843V234.014Z" fill="#1A3C2E"/>
<path d="M707.843 229.936H703.808V231.975H707.843V229.936Z" fill="#1A3C2E"/>
<path d="M707.843 225.856H703.808V227.896H707.843V225.856Z" fill="#1A3C2E"/>
<path d="M707.843 221.777H703.808V223.817H707.843V221.777Z" fill="#1A3C2E"/>
<path d="M725.513 211.58H717.441V219.738H725.513V211.58Z" fill="#7EA296"/>
<path d="M749.723 211.58H741.651V219.738H749.723V211.58Z" fill="#7EA296"/>
<path d="M760.067 217.186H707.104V309.485H760.067V217.186Z" fill="#7EA296"/>
<path d="M711.886 272.263H685.149V309.491H711.886V272.263Z" fill="#7EA296"/>
<path d="M690.7 190.16H685.149V269.711H690.7V190.16Z" fill="#1A3C2E"/>
<path d="M685.149 180.47H631.683V309.486H685.149V180.47Z" fill="#7EA296"/>
<path d="M682.12 297.249H634.707V300.308H682.12V297.249Z" fill="#1A3C2E"/>
<path d="M682.12 291.53H634.707V294.589H682.12V291.53Z" fill="#1A3C2E"/>
<path d="M682.12 285.817H634.707V288.877H682.12V285.817Z" fill="#1A3C2E"/>
<path d="M682.12 280.1H634.707V283.159H682.12V280.1Z" fill="#1A3C2E"/>
<path d="M682.12 274.381H634.707V277.44H682.12V274.381Z" fill="#1A3C2E"/>
<path d="M682.12 268.662H634.707V271.721H682.12V268.662Z" fill="#1A3C2E"/>
<path d="M682.12 262.95H634.707V266.009H682.12V262.95Z" fill="#1A3C2E"/>
<path d="M682.12 257.231H634.707V260.291H682.12V257.231Z" fill="#1A3C2E"/>
<path d="M682.12 251.513H634.707V254.572H682.12V251.513Z" fill="#1A3C2E"/>
<path d="M682.12 245.8H634.707V248.859H682.12V245.8Z" fill="#1A3C2E"/>
<path d="M682.12 240.082H634.707V243.141H682.12V240.082Z" fill="#1A3C2E"/>
<path d="M682.12 234.363H634.707V237.422L682.12 237.422V234.363Z" fill="#1A3C2E"/>
<path d="M682.12 228.65H634.707V231.71H682.12V228.65Z" fill="#1A3C2E"/>
<path d="M682.12 222.933H634.707V225.992L682.12 225.992V222.933Z" fill="#1A3C2E"/>
<path d="M682.12 217.214H634.707V220.273H682.12V217.214Z" fill="#1A3C2E"/>
<path d="M682.12 211.495H634.707V214.554H682.12V211.495Z" fill="#1A3C2E"/>
<path d="M682.12 205.783H634.707V208.842H682.12V205.783Z" fill="#1A3C2E"/>
<path d="M682.12 200.064H634.707V203.124H682.12V200.064Z" fill="#1A3C2E"/>
<path d="M682.12 194.346H634.707V197.405H682.12V194.346Z" fill="#1A3C2E"/>
<path d="M682.12 188.633H634.707V191.692H682.12V188.633Z" fill="#1A3C2E"/>
<path d="M707.301 275.829H686.602V303.875H707.301V275.829Z" fill="#1A3C2E"/>
<path d="M749.005 233.479H742.375V309.463H749.005V233.479Z" fill="#1A3C2E"/>
<path d="M724.79 233.429H718.159V309.413H724.79V233.429Z" fill="#1A3C2E"/>
<path d="M736.898 233.479H730.268V309.463H736.898V233.479Z" fill="#1A3C2E"/>
<path d="M809.735 302.348H762.322V305.407H809.735V302.348Z" fill="#1A3C2E"/>
<path d="M809.735 295.463H762.322V298.522H809.735V295.463Z" fill="#1A3C2E"/>
<path d="M809.735 288.578H762.322V291.637H809.735V288.578Z" fill="#1A3C2E"/>
<path d="M809.735 281.693H762.322V284.753H809.735V281.693Z" fill="#1A3C2E"/>
<path d="M809.735 274.81H762.322V277.869H809.735V274.81Z" fill="#1A3C2E"/>
<path d="M809.735 267.925H762.322V270.984H809.735V267.925Z" fill="#1A3C2E"/>
<path d="M809.735 261.046H762.322V264.105H809.735V261.046Z" fill="#1A3C2E"/>
<g clip-path="url(#clip1_311_16354)">
<path d="M86.2967 518.942C84.8183 517.145 83.8377 514.99 83.4531 512.694C83.0685 510.398 83.2934 508.041 84.1052 505.858C84.9171 503.675 86.2874 501.744 88.0791 500.257C89.8708 498.771 92.0211 497.781 94.3148 497.386L185.557 481.609L299.459 462.689L259.552 571.094L218.913 679.233L145.056 590.494L86.2967 518.942Z" fill="#096A62"/>
<path d="M169.601 422.245C168.487 420.889 167.749 419.264 167.46 417.532C167.17 415.801 167.34 414.023 167.952 412.378C168.565 410.732 169.598 409.275 170.948 408.154C172.299 407.032 173.92 406.285 175.649 405.986L244.472 394.091L330.393 379.836L300.291 461.61L269.638 543.174L213.921 476.225L169.601 422.245Z" fill="#10A07D"/>
<path opacity="0.15" d="M216.467 398.931L177.448 405.834C175.536 406.165 173.745 406.992 172.252 408.231C170.76 409.471 169.618 411.081 168.941 412.9C168.265 414.719 168.077 416.684 168.396 418.598C168.716 420.512 169.532 422.308 170.762 423.807L194.49 452.571C198.859 450.68 202.885 447.698 204.673 442.891C205.874 439.677 206.132 436.187 205.417 432.832C210.64 429.535 214.633 424.611 216.781 418.818C219.234 412.156 218.772 405.068 216.467 398.931Z" fill="black"/>
<path opacity="0.15" d="M142.603 512.019C142.892 511.407 143.167 510.775 143.409 510.125C144.653 506.787 145.099 503.204 144.711 499.664C144.323 496.124 143.113 492.724 141.176 489.736L93.5537 497.99C91.401 498.362 89.3833 499.293 87.7021 500.69C86.0208 502.086 84.735 503.899 83.9729 505.948C83.2108 507.997 82.9992 510.21 83.3591 512.365C83.7191 514.521 84.638 516.544 86.0241 518.233L120.767 560.939C133.01 561.794 145.331 554.789 149.829 542.695C151.784 537.438 152.141 531.72 150.856 526.261C149.57 520.802 146.699 515.847 142.603 512.019Z" fill="black"/>
<path d="M136.256 510.874C136.529 510.302 136.782 509.717 137.003 509.125C138.159 506.024 138.574 502.696 138.215 499.407C137.856 496.117 136.733 492.958 134.936 490.182L90.6528 497.828C88.6528 498.174 86.7782 499.039 85.2162 500.337C83.6543 501.635 82.4597 503.319 81.7516 505.223C81.0435 507.127 80.8468 509.183 81.181 511.186C81.5152 513.189 82.3688 515.068 83.6563 516.638L116.59 555.838C127.965 556.629 138.783 550.615 142.964 539.377C144.782 534.492 145.116 529.179 143.922 524.107C142.728 519.035 140.061 514.43 136.256 510.874Z" fill="#EBF3FA"/>
<path d="M209.972 400.061L175.17 405.914C173.441 406.213 171.82 406.96 170.47 408.082C169.119 409.203 168.086 410.66 167.474 412.306C166.862 413.951 166.692 415.729 166.981 417.461C167.27 419.192 168.009 420.817 169.123 422.173L190.313 447.47C194.265 445.758 198.175 443.808 199.803 439.432C200.889 436.523 201.122 433.365 200.475 430.329C205.204 427.346 208.819 422.887 210.763 417.643C212.992 411.637 212.059 405.61 209.972 400.061Z" fill="#EBF3FA"/>
</g>
<g clip-path="url(#clip2_311_16354)">
<path d="M1254.33 989.843C1255.16 991.297 1255.6 992.943 1255.6 994.618C1255.59 996.293 1255.15 997.938 1254.31 999.389C1253.48 1000.84 1252.27 1002.04 1250.82 1002.88C1249.37 1003.72 1247.73 1004.17 1246.06 1004.17L1179.38 1004.38L1096.24 1004.11L1137.55 931.988L1179.36 860.141L1221.18 931.993L1254.33 989.843Z" fill="#10A07D"/>
<path opacity="0.15" d="M1206.51 1004.3L1244.34 1004.04C1246.19 1004.03 1248.01 1003.54 1249.61 1002.61C1251.22 1001.68 1252.55 1000.35 1253.47 998.748C1254.4 997.144 1254.89 995.326 1254.89 993.474C1254.89 991.622 1254.41 989.802 1253.49 988.195L1235.71 957.352C1231.3 958.432 1227.04 960.597 1224.59 964.841C1222.95 967.675 1222.16 970.917 1222.3 974.186C1216.86 976.458 1212.32 980.453 1209.38 985.557C1206.01 991.422 1205.32 998.156 1206.51 1004.3Z" fill="black"/>
<path d="M1212.81 1004.28L1246.49 1004.32C1248.17 1004.32 1249.81 1003.87 1251.26 1003.03C1252.71 1002.19 1253.92 1000.99 1254.75 999.537C1255.59 998.087 1256.03 996.442 1256.03 994.767C1256.04 993.092 1255.6 991.445 1254.77 989.992L1238.84 962.818C1234.84 963.795 1230.85 965.008 1228.63 968.864C1227.14 971.425 1226.42 974.356 1226.55 977.314C1221.62 979.367 1217.51 982.986 1214.85 987.61C1211.8 992.896 1211.73 998.713 1212.81 1004.28Z" fill="#EBF3FA"/>
</g>
<g clip-path="url(#clip3_311_16354)">
<path d="M1270.06 783.632C1268.21 801.718 1281.49 818.031 1299.58 819.881C1317.67 821.732 1333.98 808.449 1335.83 790.363C1337.68 772.276 1324.4 755.964 1306.31 754.113C1288.22 752.262 1271.91 765.546 1270.06 783.632Z" fill="#096A62"/>
<path d="M1281.8 813.261C1280.81 822.907 1287.89 831.607 1297.54 832.594C1307.19 833.581 1315.89 826.497 1316.87 816.851C1317.86 807.205 1310.77 798.505 1301.13 797.518C1291.48 796.531 1282.78 803.615 1281.8 813.261Z" fill="#10A07D"/>
<path d="M1281.32 756.54C1280.7 762.669 1285.2 768.197 1291.33 768.824C1297.46 769.452 1302.99 764.95 1303.61 758.821C1304.24 752.692 1299.74 747.164 1293.61 746.536C1287.48 745.909 1281.95 750.411 1281.32 756.54Z" fill="#10A07D"/>
<path d="M1200.26 776.625L1199.99 779.279C1199.86 780.559 1200.8 781.7 1202.08 781.815L1284.91 789.242C1286.17 789.355 1287.29 788.434 1287.42 787.176L1287.48 786.6C1287.61 785.342 1286.7 784.214 1285.44 784.07L1202.82 774.565C1201.54 774.418 1200.39 775.345 1200.26 776.625Z" fill="#1F304E"/>
<path d="M1272.34 784.624L1270.69 785.818C1269.89 786.394 1269.45 787.13 1269.7 787.454L1285.83 808.361C1286.08 808.679 1286.9 808.479 1287.68 807.913L1288.04 807.654C1288.82 807.088 1289.27 806.366 1289.05 806.034L1274.2 784.192C1273.97 783.853 1273.13 784.048 1272.34 784.624Z" fill="#1F304E"/>
<path d="M1261.12 784.281L1259.87 783.029C1259.26 782.425 1259.09 781.673 1259.47 781.357L1284.4 760.966C1284.78 760.656 1285.56 760.884 1286.16 761.478L1286.43 761.75C1287.02 762.344 1287.21 763.082 1286.84 763.407L1262.89 784.778C1262.52 785.109 1261.73 784.885 1261.12 784.281Z" fill="#1F304E"/>
</g>
<g clip-path="url(#clip4_311_16354)">
<path d="M117.795 845.677C111.064 820.557 85.0037 805.511 59.8835 812.242C34.7633 818.973 19.7175 845.033 26.4484 870.153C33.1794 895.273 59.2394 910.319 84.3597 903.588C109.48 896.857 124.526 870.797 117.795 845.677Z" fill="#096A62"/>
<path d="M87.025 812.04C83.4352 798.643 69.5365 790.618 56.139 794.208C42.7416 797.798 34.7172 811.697 38.307 825.094C41.8968 838.492 55.7955 846.516 69.193 842.926C82.5904 839.336 90.6149 825.438 87.025 812.04Z" fill="#10A07D"/>
<path d="M116.525 887.627C114.244 879.114 105.412 874.015 96.8992 876.296C88.3863 878.577 83.2874 887.408 85.5685 895.921C87.8495 904.434 96.681 909.533 105.194 907.252C113.707 904.971 118.806 896.14 116.525 887.627Z" fill="#10A07D"/>
<path d="M214.673 819.517L213.685 815.832C213.209 814.054 211.371 813.008 209.598 813.507L95.0808 845.737C93.3399 846.227 92.3159 848.026 92.7841 849.774L92.9985 850.574C93.4667 852.321 95.2531 853.367 97.0057 852.921L212.296 823.575C214.08 823.121 215.149 821.296 214.673 819.517Z" fill="#1F304E"/>
<path d="M114.244 845.509L115.839 843.074C116.609 841.899 116.831 840.689 116.332 840.384L84.1219 820.645C83.6324 820.345 82.6308 821.032 81.8746 822.187L81.528 822.716C80.7718 823.87 80.5419 825.063 81.0125 825.392L111.974 847.036C112.454 847.371 113.475 846.684 114.244 845.509Z" fill="#1F304E"/>
<path d="M129.413 840.258L131.725 841.295C132.84 841.795 133.462 842.709 133.106 843.328L110.157 883.275C109.809 883.883 108.646 883.976 107.551 883.485L107.048 883.259C105.952 882.768 105.329 881.874 105.651 881.255L126.791 840.496C127.118 839.865 128.297 839.758 129.413 840.258Z" fill="#1F304E"/>
</g>
<g clip-path="url(#clip5_311_16354)">
<path d="M373.168 271.526C386.742 263.339 391.149 245.536 382.963 231.962C374.776 218.388 356.973 213.981 343.399 222.167C329.825 230.354 325.418 248.157 333.604 261.731C341.791 275.305 359.595 279.712 373.168 271.526Z" fill="#096A62"/>
<path d="M387.667 247.823C394.906 243.457 397.257 233.961 392.891 226.722C388.525 219.483 379.03 217.132 371.79 221.498C364.551 225.864 362.2 235.36 366.566 242.599C370.932 249.838 380.428 252.189 387.667 247.823Z" fill="#10A07D"/>
<path d="M348.387 277.87C352.987 275.096 354.48 269.063 351.706 264.463C348.932 259.863 342.898 258.369 338.298 261.143C333.698 263.918 332.204 269.951 334.979 274.551C337.753 279.151 343.787 280.645 348.387 277.87Z" fill="#10A07D"/>
<path d="M404.857 323.84L406.848 322.639C407.809 322.059 408.111 320.806 407.519 319.852L369.294 258.235C368.713 257.298 367.486 257.002 366.542 257.572L366.109 257.833C365.165 258.402 364.855 259.625 365.412 260.576L402.079 323.134C402.647 324.102 403.896 324.42 404.857 323.84Z" fill="#1F304E"/>
<path d="M372.666 269.419L374.361 269.941C375.179 270.194 375.926 270.119 376.02 269.775L382.137 247.577C382.23 247.24 381.658 246.769 380.854 246.521L380.486 246.408C379.682 246.16 378.945 246.227 378.832 246.558L371.388 268.347C371.273 268.685 371.848 269.166 372.666 269.419Z" fill="#1F304E"/>
<path d="M378.304 277.414L378.088 278.943C377.983 279.681 377.553 280.2 377.131 280.096L349.858 273.407C349.444 273.305 349.193 272.64 349.295 271.916L349.342 271.583C349.445 270.859 349.863 270.343 350.28 270.426L377.722 275.919C378.147 276.004 378.408 276.676 378.304 277.414Z" fill="#1F304E"/>
</g>
<g clip-path="url(#clip6_311_16354)">
<path d="M1193.39 464.52C1190.93 466.038 1187.71 465.285 1186.2 462.839C1184.69 460.393 1185.46 457.179 1187.92 455.661C1190.39 454.143 1193.6 454.896 1195.11 457.342C1196.62 459.788 1195.85 463.002 1193.39 464.52Z" fill="#10A07D"/>
<g opacity="0.15">
<g opacity="0.15">
<path opacity="0.15" d="M1195.84 459.133C1195.73 460.778 1194.86 462.351 1193.34 463.285C1190.87 464.812 1187.63 464.055 1186.11 461.595C1185.75 461.004 1185.52 460.369 1185.41 459.724C1185.34 460.766 1185.58 461.837 1186.17 462.791C1187.69 465.252 1190.93 466.009 1193.4 464.482C1195.28 463.322 1196.18 461.176 1195.84 459.133Z" fill="black"/>
</g>
</g>
<path d="M1185.04 442.39C1183.18 443.534 1180.76 442.967 1179.62 441.123C1178.48 439.279 1179.06 436.856 1180.92 435.712C1182.77 434.567 1185.2 435.135 1186.34 436.979C1187.47 438.823 1186.89 441.245 1185.04 442.39Z" fill="#10A07D"/>
<g opacity="0.15">
<g opacity="0.15">
<path opacity="0.15" d="M1186.88 438.329C1186.8 439.569 1186.14 440.755 1185 441.459C1183.13 442.61 1180.69 442.04 1179.55 440.185C1179.28 439.74 1179.1 439.261 1179.02 438.775C1178.97 439.56 1179.15 440.368 1179.6 441.087C1180.74 442.942 1183.18 443.512 1185.05 442.361C1186.46 441.487 1187.14 439.87 1186.88 438.329Z" fill="black"/>
</g>
</g>
<path d="M1181.45 451.93L1180.57 451.777C1180.15 451.702 1179.83 451.499 1179.87 451.324L1182.27 440.03C1182.31 439.858 1182.67 439.779 1183.09 439.851L1183.28 439.885C1183.69 439.958 1184.01 440.156 1183.98 440.329L1182.27 451.744C1182.24 451.921 1181.87 452.004 1181.45 451.93Z" fill="#1F304E"/>
<path d="M1174.76 455.649L1174.5 456.38C1174.38 456.733 1174.45 457.062 1174.66 457.112L1188.37 460.348C1188.58 460.397 1188.84 460.158 1188.96 459.811L1189.02 459.653C1189.14 459.306 1189.07 458.981 1188.87 458.923L1175.36 455.114C1175.15 455.055 1174.88 455.296 1174.76 455.649Z" fill="#1F304E"/>
<path d="M1223.34 446.098C1215.04 451.219 1204.18 448.68 1199.09 440.428C1194 432.175 1196.6 421.334 1204.9 416.213C1213.2 411.092 1224.06 413.631 1229.15 421.883C1234.24 430.135 1231.64 440.977 1223.34 446.098Z" fill="#096A62"/>
<g opacity="0.15">
<g opacity="0.15">
<path opacity="0.15" d="M1231.59 428.293C1231.24 433.808 1228.3 439.085 1223.21 442.22C1214.91 447.341 1204.06 444.802 1198.97 436.55C1197.74 434.569 1196.97 432.439 1196.6 430.274C1196.38 433.77 1197.2 437.361 1199.17 440.563C1204.26 448.815 1215.12 451.354 1223.42 446.233C1229.73 442.341 1232.74 435.146 1231.59 428.293Z" fill="black"/>
</g>
</g>
<path d="M1129.04 484.306L1128.48 483.402C1128.21 482.966 1128.88 482.066 1129.98 481.4L1200.46 438.408C1201.53 437.754 1202.6 437.573 1202.87 438.002L1202.99 438.198C1203.25 438.627 1202.61 439.506 1201.54 440.17L1131.5 483.87C1130.41 484.546 1129.31 484.742 1129.04 484.306Z" fill="#1F304E"/>
</g>
<g clip-path="url(#clip7_311_16354)">
<path d="M1085.07 1121.08C1080.76 1123.2 1075.65 1114.88 1060.04 1117.53C1044.43 1120.18 1042.67 1101.83 1044.57 1090.58C1046.47 1079.33 1057.95 1068.33 1067.53 1066.16C1077.1 1063.99 1091.52 1068.38 1092.29 1078.98C1093.07 1089.93 1089.38 1118.95 1085.07 1121.08Z" fill="#85E380"/>
<path d="M1079.33 1110.61C1079.23 1110.66 1079.11 1110.61 1079.07 1110.5C1079.07 1110.5 1075.06 1100.89 1070 1090.88C1067.47 1085.87 1064.68 1080.77 1061.99 1076.72C1061.76 1076.37 1061.83 1076.49 1061.6 1076.15C1061.99 1077.45 1062.78 1080.84 1063.68 1086.16C1064.74 1092.49 1065.28 1099.99 1063.06 1104.74C1063.01 1104.84 1062.89 1104.89 1062.79 1104.84C1062.69 1104.79 1062.64 1104.67 1062.69 1104.57C1064.83 1099.99 1064.03 1092.67 1062.97 1086.37C1061.91 1080.08 1060.61 1074.8 1060.61 1074.8C1060.62 1074.79 1060.62 1074.79 1060.62 1074.78C1059.71 1073.1 1058.34 1072.66 1058.67 1071.92C1058.77 1071.7 1059.02 1071.59 1059.21 1071.45C1060.41 1070.62 1059.84 1071.69 1061.62 1074.18C1068.35 1074.51 1073.5 1075.75 1077.17 1078.03C1079.02 1079.17 1080.33 1080.69 1080.9 1082.65C1081.47 1084.61 1081.3 1087 1080.25 1089.91C1080.21 1090.01 1080.09 1090.07 1079.99 1090.03C1079.88 1089.99 1079.83 1089.88 1079.87 1089.77C1080.89 1086.91 1081.04 1084.61 1080.5 1082.76C1079.97 1080.91 1078.74 1079.48 1076.96 1078.38C1073.46 1076.21 1068.51 1075.18 1061.95 1074.83C1062.3 1075.34 1062.41 1075.56 1062.77 1076.1C1065.47 1080.17 1068.07 1085.47 1070.61 1090.49C1075.67 1100.51 1079.44 1110.34 1079.44 1110.34C1079.49 1110.45 1079.44 1110.57 1079.33 1110.61Z" fill="#F0E36D"/>
<path d="M1075.18 1118.52C1077.05 1119.15 1078.6 1119.86 1079.94 1120.43C1078.61 1120.03 1077.07 1119.28 1075.18 1118.52Z" fill="#F0E36D"/>
<path d="M1085.47 1120.8C1085.34 1120.92 1085.2 1121.01 1085.07 1121.08C1083.59 1121.81 1082 1121.3 1079.94 1120.43C1081.16 1120.8 1082.21 1120.88 1083.22 1120.39C1087.53 1118.26 1091.23 1089.25 1090.44 1078.29C1090.05 1072.86 1086.07 1069.08 1081 1066.95C1086.92 1068.88 1091.85 1072.9 1092.29 1078.98C1093.05 1089.59 1089.61 1117.16 1085.47 1120.8Z" fill="#F0E36D"/>
</g>
<g clip-path="url(#clip8_311_16354)">
<path d="M1138.59 485.03C1135.28 487.716 1130.34 487.203 1127.66 483.893C1124.97 480.583 1125.49 475.65 1128.79 472.964C1132.1 470.279 1137.04 470.792 1139.72 474.102C1142.41 477.411 1141.9 482.345 1138.59 485.03Z" fill="#85E380"/>
<path d="M1143.78 507.306C1141.01 509.548 1136.9 509.119 1134.65 506.357C1132.41 503.594 1132.84 499.476 1135.6 497.234C1138.37 494.992 1142.48 495.421 1144.73 498.183C1146.97 500.946 1146.54 505.064 1143.78 507.306Z" fill="#85E380"/>
<path d="M1121.81 473.342C1118.49 476.034 1113.55 475.519 1110.85 472.201C1108.16 468.884 1108.68 463.939 1111.99 461.246C1115.31 458.554 1120.26 459.069 1122.95 462.386C1125.64 465.704 1125.13 470.649 1121.81 473.342Z" fill="#85E380"/>
<path d="M1142.32 498.385C1139.01 501.071 1134.08 500.557 1131.39 497.248C1128.7 493.938 1129.22 489.004 1132.53 486.319C1135.84 483.633 1140.77 484.146 1143.46 487.456C1146.14 490.766 1145.63 495.699 1142.32 498.385Z" fill="#85E380"/>
<path d="M1141.39 492.597C1138.08 495.283 1133.14 494.769 1130.46 491.459C1127.77 488.15 1128.29 483.216 1131.59 480.531C1134.9 477.845 1139.84 478.358 1142.52 481.668C1145.21 484.978 1144.7 489.911 1141.39 492.597Z" fill="#85E380"/>
<path d="M1135.78 488.898C1132.94 491.197 1128.72 490.757 1126.42 487.924C1124.12 485.091 1124.56 480.867 1127.39 478.568C1130.23 476.268 1134.45 476.708 1136.75 479.541C1139.05 482.374 1138.61 486.598 1135.78 488.898Z" fill="#10A07D"/>
<path d="M1128.97 477.515C1125.66 480.201 1120.73 479.688 1118.04 476.378C1115.36 473.069 1115.87 468.135 1119.18 465.449C1122.49 462.764 1127.42 463.277 1130.11 466.587C1132.79 469.896 1132.28 474.83 1128.97 477.515Z" fill="#85E380"/>
<path d="M1140.96 505.288C1138.17 507.547 1134.02 507.115 1131.77 504.332C1129.51 501.548 1129.94 497.398 1132.72 495.139C1135.51 492.88 1139.66 493.312 1141.91 496.096C1144.17 498.88 1143.74 503.029 1140.96 505.288Z" fill="#10A07D"/>
<path d="M1114.84 471.347C1111.52 474.04 1106.58 473.525 1103.89 470.207C1101.19 466.89 1101.71 461.945 1105.03 459.252C1108.34 456.56 1113.29 457.075 1115.98 460.392C1118.67 463.71 1118.16 468.655 1114.84 471.347Z" fill="#85E380"/>
<path d="M1125.72 475.201C1123.33 477.145 1119.76 476.773 1117.81 474.378C1115.87 471.982 1116.24 468.41 1118.64 466.466C1121.03 464.522 1124.6 464.893 1126.55 467.289C1128.49 469.685 1128.12 473.256 1125.72 475.201Z" fill="#10A07D"/>
<path d="M1119.26 473.783C1116.86 475.727 1113.29 475.355 1111.35 472.959C1109.4 470.564 1109.78 466.992 1112.17 465.048C1114.57 463.104 1118.14 463.475 1120.08 465.871C1122.03 468.267 1121.66 471.839 1119.26 473.783Z" fill="#10A07D"/>
<path d="M1140.6 499.132C1136.54 502.425 1130.5 501.795 1127.2 497.738C1123.91 493.681 1124.54 487.634 1128.6 484.341C1132.65 481.049 1138.7 481.678 1141.99 485.735C1145.29 489.792 1144.66 495.84 1140.6 499.132Z" fill="#10A07D"/>
<path d="M1133.68 483.338C1130.55 485.88 1125.88 485.394 1123.34 482.262C1120.8 479.13 1121.28 474.461 1124.42 471.919C1127.55 469.378 1132.22 469.863 1134.76 472.996C1137.3 476.128 1136.81 480.797 1133.68 483.338Z" fill="#10A07D"/>
<path d="M1129.63 489.542C1125.84 492.616 1120.2 492.028 1117.13 488.241C1114.05 484.454 1114.64 478.808 1118.43 475.735C1122.21 472.662 1127.86 473.249 1130.93 477.037C1134.01 480.824 1133.42 486.469 1129.63 489.542Z" fill="#096A62"/>
<path d="M1132.74 497.238C1129.73 499.678 1125.25 499.212 1122.81 496.204C1120.37 493.197 1120.83 488.714 1123.84 486.274C1126.85 483.833 1131.33 484.3 1133.77 487.307C1136.21 490.314 1135.74 494.797 1132.74 497.238Z" fill="#096A62"/>
<path d="M1114.46 473.328C1112.06 475.272 1108.49 474.9 1106.55 472.505C1104.6 470.109 1104.97 466.537 1107.37 464.593C1109.77 462.649 1113.34 463.02 1115.28 465.416C1117.23 467.812 1116.85 471.383 1114.46 473.328Z" fill="#10A07D"/>
<path d="M1119.44 481.348C1116.8 483.496 1112.85 483.086 1110.7 480.439C1108.56 477.792 1108.97 473.847 1111.61 471.699C1114.26 469.551 1118.21 469.961 1120.35 472.608C1122.5 475.255 1122.09 479.2 1119.44 481.348Z" fill="#096A62"/>
<path d="M1134.52 499.979C1132.37 501.723 1129.17 501.39 1127.42 499.24C1125.68 497.091 1126.01 493.886 1128.16 492.142C1130.31 490.397 1133.52 490.731 1135.26 492.881C1137 495.03 1136.67 498.234 1134.52 499.979Z" fill="#096A62"/>
</g>
<path d="M410.09 1176.85L423.32 1183.72L425.559 1179.4L412.328 1172.54L410.09 1176.85Z" fill="#1A3C2E"/>
<path d="M436.35 1182.88L438.24 1183.86L438.738 1182.9L436.847 1181.92L436.35 1182.88Z" fill="#1A3C2E"/>
<path d="M435.355 1184.79L437.245 1185.78L437.743 1184.82L435.852 1183.84L435.355 1184.79Z" fill="#1A3C2E"/>
<path d="M434.36 1186.71L436.25 1187.69L436.747 1186.73L434.857 1185.75L434.36 1186.71Z" fill="#1A3C2E"/>
<path d="M433.365 1188.63L435.256 1189.61L435.753 1188.65L433.863 1187.67L433.365 1188.63Z" fill="#1A3C2E"/>
<path d="M432.37 1190.55L434.261 1191.53L434.758 1190.57L432.868 1189.59L432.37 1190.55Z" fill="#1A3C2E"/>
<path d="M431.376 1192.46L433.267 1193.44L433.764 1192.48L431.873 1191.5L431.376 1192.46Z" fill="#1A3C2E"/>
<path d="M430.381 1194.38L432.271 1195.36L432.769 1194.4L430.878 1193.42L430.381 1194.38Z" fill="#1A3C2E"/>
<path d="M429.386 1196.3L431.276 1197.28L431.774 1196.32L429.883 1195.34L429.386 1196.3Z" fill="#1A3C2E"/>
<path d="M428.392 1198.21L430.282 1199.19L430.78 1198.24L428.889 1197.25L428.392 1198.21Z" fill="#1A3C2E"/>
<path d="M427.396 1200.13L429.286 1201.11L429.784 1200.15L427.893 1199.17L427.396 1200.13Z" fill="#1A3C2E"/>
<path d="M412.076 1173.02L437.121 1186.01L450.303 1160.61L425.258 1147.61L412.076 1173.02Z" fill="#7EA296"/>
<path d="M461.97 1197.08L463.86 1198.06L464.358 1197.11L462.467 1196.12L461.97 1197.08Z" fill="#1A3C2E"/>
<path d="M460.975 1199L462.865 1199.98L463.363 1199.02L461.472 1198.04L460.975 1199Z" fill="#1A3C2E"/>
<path d="M459.981 1200.92L461.871 1201.9L462.368 1200.94L460.478 1199.96L459.981 1200.92Z" fill="#1A3C2E"/>
<path d="M458.985 1202.83L460.876 1203.82L461.373 1202.86L459.483 1201.88L458.985 1202.83Z" fill="#1A3C2E"/>
<path d="M457.991 1204.75L459.882 1205.73L460.379 1204.77L458.489 1203.79L457.991 1204.75Z" fill="#1A3C2E"/>
<path d="M456.994 1206.67L458.885 1207.65L459.382 1206.69L457.492 1205.71L456.994 1206.67Z" fill="#1A3C2E"/>
<path d="M456 1208.59L457.891 1209.57L458.388 1208.61L456.498 1207.63L456 1208.59Z" fill="#1A3C2E"/>
<path d="M455.005 1210.5L456.896 1211.49L457.393 1210.53L455.502 1209.55L455.005 1210.5Z" fill="#1A3C2E"/>
<path d="M454.011 1212.42L455.901 1213.4L456.399 1212.44L454.508 1211.46L454.011 1212.42Z" fill="#1A3C2E"/>
<path d="M453.016 1214.34L454.906 1215.32L455.404 1214.36L453.513 1213.38L453.016 1214.34Z" fill="#1A3C2E"/>
<path d="M442.252 1214.84L446.033 1216.8L448.023 1212.96L444.242 1211L442.252 1214.84Z" fill="#7EA296"/>
<path d="M430.911 1208.95L434.692 1210.91L436.682 1207.08L432.901 1205.12L430.911 1208.95Z" fill="#7EA296"/>
<path d="M427.434 1203.8L452.243 1216.68L474.753 1173.3L449.944 1160.42L427.434 1203.8Z" fill="#7EA296"/>
<path d="M463.435 1189.63L475.959 1196.13L485.038 1178.63L472.514 1172.13L463.435 1189.63Z" fill="#7EA296"/>
<path d="M453.335 1233.36L455.936 1234.71L475.336 1197.33L472.736 1195.98L453.335 1233.36Z" fill="#1A3C2E"/>
<path d="M453.572 1239.27L478.617 1252.26L510.081 1191.63L485.036 1178.64L453.572 1239.27Z" fill="#7EA296"/>
<path d="M483.471 1185.12L505.681 1196.65L506.427 1195.21L484.218 1183.68L483.471 1185.12Z" fill="#1A3C2E"/>
<path d="M482.077 1187.81L504.286 1199.33L505.032 1197.9L482.823 1186.37L482.077 1187.81Z" fill="#1A3C2E"/>
<path d="M480.683 1190.49L502.893 1202.02L503.639 1200.58L481.429 1189.06L480.683 1190.49Z" fill="#1A3C2E"/>
<path d="M479.289 1193.18L501.498 1204.71L502.244 1203.27L480.035 1191.74L479.289 1193.18Z" fill="#1A3C2E"/>
<path d="M477.894 1195.87L500.104 1207.39L500.85 1205.96L478.64 1194.43L477.894 1195.87Z" fill="#1A3C2E"/>
<path d="M476.5 1198.56L498.709 1210.08L499.455 1208.64L477.246 1197.12L476.5 1198.56Z" fill="#1A3C2E"/>
<path d="M475.106 1201.24L497.315 1212.77L498.062 1211.33L475.852 1199.8L475.106 1201.24Z" fill="#1A3C2E"/>
<path d="M473.712 1203.93L495.921 1215.45L496.667 1214.02L474.458 1202.49L473.712 1203.93Z" fill="#1A3C2E"/>
<path d="M472.317 1206.62L494.526 1218.14L495.272 1216.7L473.063 1205.18L472.317 1206.62Z" fill="#1A3C2E"/>
<path d="M470.925 1209.3L493.134 1220.83L493.88 1219.39L471.671 1207.86L470.925 1209.3Z" fill="#1A3C2E"/>
<path d="M469.529 1211.99L491.738 1223.51L492.484 1222.08L470.275 1210.55L469.529 1211.99Z" fill="#1A3C2E"/>
<path d="M468.135 1214.68L490.344 1226.2L491.09 1224.76L468.881 1213.24L468.135 1214.68Z" fill="#1A3C2E"/>
<path d="M466.742 1217.36L488.951 1228.89L489.697 1227.45L467.488 1215.92L466.742 1217.36Z" fill="#1A3C2E"/>
<path d="M465.347 1220.05L487.557 1231.57L488.303 1230.14L466.094 1218.61L465.347 1220.05Z" fill="#1A3C2E"/>
<path d="M463.953 1222.74L486.162 1234.26L486.908 1232.82L464.699 1221.3L463.953 1222.74Z" fill="#1A3C2E"/>
<path d="M462.558 1225.42L484.768 1236.95L485.514 1235.51L463.304 1223.99L462.558 1225.42Z" fill="#1A3C2E"/>
<path d="M461.165 1228.11L483.374 1239.63L484.12 1238.2L461.911 1226.67L461.165 1228.11Z" fill="#1A3C2E"/>
<path d="M459.77 1230.8L481.979 1242.32L482.726 1240.88L460.516 1229.36L459.77 1230.8Z" fill="#1A3C2E"/>
<path d="M458.376 1233.48L480.585 1245.01L481.331 1243.57L459.122 1232.05L458.376 1233.48Z" fill="#1A3C2E"/>
<path d="M456.982 1236.17L479.191 1247.69L479.937 1246.26L457.728 1234.73L456.982 1236.17Z" fill="#1A3C2E"/>
<path d="M466.451 1189.07L476.147 1194.1L482.987 1180.92L473.291 1175.89L466.451 1189.07Z" fill="#1A3C2E"/>
<path d="M436.589 1198.83L439.694 1200.45L458.225 1164.74L455.119 1163.12L436.589 1198.83Z" fill="#1A3C2E"/>
<path d="M447.92 1204.74L451.025 1206.36L469.556 1170.65L466.45 1169.03L447.92 1204.74Z" fill="#1A3C2E"/>
<path d="M442.26 1201.78L445.366 1203.39L463.897 1167.68L460.791 1166.07L442.26 1201.78Z" fill="#1A3C2E"/>
<path d="M424.937 1151.71L447.146 1163.23L447.893 1161.79L425.683 1150.27L424.937 1151.71Z" fill="#1A3C2E"/>
<path d="M423.258 1154.94L445.467 1166.47L446.213 1165.03L424.004 1153.5L423.258 1154.94Z" fill="#1A3C2E"/>
<path d="M421.579 1158.18L443.788 1169.7L444.534 1168.26L422.325 1156.74L421.579 1158.18Z" fill="#1A3C2E"/>
<path d="M419.9 1161.41L442.109 1172.94L442.855 1171.5L420.646 1159.97L419.9 1161.41Z" fill="#1A3C2E"/>
<path d="M418.221 1164.65L440.43 1176.17L441.176 1174.74L418.967 1163.21L418.221 1164.65Z" fill="#1A3C2E"/>
<path d="M416.542 1167.88L438.751 1179.41L439.497 1177.97L417.288 1166.45L416.542 1167.88Z" fill="#1A3C2E"/>
<path d="M414.864 1171.12L437.073 1182.64L437.819 1181.2L415.61 1169.68L414.864 1171.12Z" fill="#1A3C2E"/>
<defs>
<clipPath id="clip0_311_16354">
<rect width="128" height="129" fill="white" transform="translate(768 1311) rotate(-180)"/>
</clipPath>
<clipPath id="clip1_311_16354">
<rect width="319.478" height="203.372" fill="white" transform="translate(28.665 608.468) rotate(-69.5968)"/>
</clipPath>
<clipPath id="clip2_311_16354">
<rect width="166.225" height="135.276" fill="white" transform="translate(1296.27 927.639) rotate(120)"/>
</clipPath>
<clipPath id="clip3_311_16354">
<rect width="136.263" height="136.263" fill="white" transform="translate(1342.43 725.873) rotate(95.8431)"/>
</clipPath>
<clipPath id="clip4_311_16354">
<rect width="194.916" height="194.916" fill="white" transform="translate(50.4482 959.723) rotate(-105)"/>
</clipPath>
<clipPath id="clip5_311_16354">
<rect width="118.804" height="118.804" fill="white" transform="translate(295 251.357) rotate(-31.0949)"/>
</clipPath>
<clipPath id="clip6_311_16354">
<rect width="117.381" height="118.07" fill="white" transform="translate(1198.49 372) rotate(58.3284)"/>
</clipPath>
<clipPath id="clip7_311_16354">
<rect width="58.864" height="58.864" fill="white" transform="matrix(0.707107 -0.707107 -0.707107 -0.707107 1071.62 1137.25)"/>
</clipPath>
<clipPath id="clip8_311_16354">
<rect width="62" height="62" fill="white" transform="translate(1132.14 437) rotate(50.9409)"/>
</clipPath>
</defs>
</svg>
