<svg width="1865" height="1882" viewBox="0 0 1865 1882" fill="none" xmlns="http://www.w3.org/2000/svg">
<circle cx="868" cy="1041" r="841" fill="#71C383"/>
<g clip-path="url(#clip0_311_16353)">
<path d="M1638.18 878.624L1710.33 797.287L1763.71 736.352C1770.95 728.091 1765.33 714.255 1754.38 713.377L1751.4 713.132C1749.01 712.943 1747.79 709.92 1749.37 708.116L1800.62 649.624C1807.86 641.362 1802.24 627.526 1791.29 626.645L1673.4 617.196L1661.78 616.34C1659.38 616.16 1658.14 613.129 1659.74 611.313C1666.98 603.053 1661.36 589.217 1650.42 588.338L1597.04 584.059L1516.05 578.071L1543.04 645.305L1559.84 686.239L1576.33 727.299L1588.95 758.045L1601.33 788.888L1638.18 878.624Z" fill="#117C87"/>
<path opacity="0.15" d="M1743.48 735.022C1745.37 739.766 1749.05 743.572 1753.73 745.611C1754.12 745.776 1754.54 745.816 1754.95 745.725C1755.36 745.634 1755.72 745.416 1756 745.103L1760.78 739.636C1767.84 731.578 1767.68 720.031 1757.47 714.156C1755.47 712.996 1752.85 713.647 1750.5 712.949C1750.25 712.851 1749.99 712.8 1749.72 712.797C1749.43 712.851 1749.16 712.969 1748.93 713.142C1742.63 717.909 1740.17 726.87 1743.48 735.022Z" fill="black"/>
<path opacity="0.15" d="M1798.44 651.563C1806.13 642.8 1800.16 628.114 1788.55 627.186L1747.68 623.803C1744.46 629.643 1744.07 637.179 1746.88 644.113C1748 646.876 1749.62 649.411 1751.65 651.591C1747.62 657.824 1746.66 666.146 1749.8 673.891C1752.87 681.433 1759.8 686.386 1766.81 688.186L1798.44 651.563Z" fill="black"/>
<path d="M1801.14 649.25C1808.38 640.988 1802.76 627.152 1791.81 626.271L1752.49 623.497C1749.46 628.999 1749.89 635.685 1752.55 642.226C1753.6 644.83 1755.13 647.216 1757.05 649.266C1753.26 655.139 1752.35 662.983 1755.31 670.282C1758.2 677.393 1763.6 682.64 1770.21 684.335L1801.14 649.25Z" fill="#EBF3FA"/>
<path d="M1748.84 732.372C1749.72 734.589 1751.07 736.59 1752.79 738.238C1754.52 739.886 1756.58 741.142 1758.83 741.921L1763.71 736.352C1770.95 728.091 1765.33 714.255 1754.38 713.376L1753.81 713.332C1748.18 717.364 1745.94 725.229 1748.84 732.372Z" fill="#EBF3FA"/>
</g>
<g clip-path="url(#clip1_311_16353)">
<path d="M217.647 1750.24C217.225 1752.4 217.376 1754.63 218.086 1756.7C218.795 1758.78 220.037 1760.64 221.688 1762.08C223.339 1763.53 225.341 1764.51 227.494 1764.94C229.648 1765.37 231.877 1765.23 233.959 1764.52L316.818 1736.55L419.921 1701L338.23 1628.99L256.045 1557.53L234.416 1664.41L217.647 1750.24Z" fill="#10A07D"/>
<path opacity="0.15" d="M283.105 1747.94L236.03 1763.63C233.728 1764.4 231.264 1764.56 228.883 1764.09C226.502 1763.62 224.289 1762.53 222.463 1760.93C220.638 1759.33 219.265 1757.28 218.481 1754.98C217.698 1752.69 217.532 1750.22 217.999 1747.84L227.062 1702.04C233 1701.51 239.199 1702.39 244.031 1706.62C247.255 1709.44 249.607 1713.13 250.809 1717.25C258.516 1717.77 265.835 1720.8 271.639 1725.89C278.302 1731.74 281.991 1739.81 283.105 1747.94Z" fill="black"/>
<path d="M275.279 1750.57L233.478 1764.89C231.396 1765.59 229.167 1765.74 227.014 1765.31C224.86 1764.88 222.858 1763.9 221.207 1762.45C219.556 1761.01 218.314 1759.15 217.605 1757.07C216.896 1755 216.744 1752.77 217.166 1750.61L225.487 1710.14C230.861 1709.66 236.321 1709.48 240.711 1713.32C243.633 1715.87 245.765 1719.2 246.854 1722.93C253.834 1723.39 260.464 1726.14 265.719 1730.75C271.73 1736.02 274.271 1743.21 275.279 1750.57Z" fill="#EBF3FA"/>
</g>
<g clip-path="url(#clip2_311_16353)">
<path d="M70.5647 520.185C82.3362 526.982 86.3694 542.034 79.5731 553.805C72.7768 565.577 57.7247 569.61 45.9531 562.814C34.1816 556.018 30.1484 540.965 36.9447 529.194C43.741 517.422 58.7931 513.389 70.5647 520.185Z" fill="#096A62"/>
<g opacity="0.15">
<g opacity="0.15">
<path opacity="0.15" d="M43.2194 521.904C50.237 518.659 58.6701 518.761 65.8748 522.92C77.6463 529.717 81.6794 544.769 74.8832 556.54C73.2518 559.366 71.1439 561.744 68.7207 563.635C73.1689 561.579 77.0487 558.177 79.6854 553.61C86.4816 541.839 82.4485 526.787 70.677 519.99C61.7309 514.825 50.8914 515.916 43.2194 521.904Z" fill="black"/>
</g>
</g>
<path d="M74.0907 561.09C76.5534 562.511 77.3971 565.661 75.9752 568.123C74.5535 570.586 71.4045 571.43 68.9417 570.008C66.479 568.586 65.635 565.437 67.0568 562.974C68.4787 560.512 71.6279 559.668 74.0907 561.09Z" fill="#10A07D"/>
<g opacity="0.15">
<g opacity="0.15">
<path opacity="0.15" d="M68.3962 561.553C69.8574 560.878 71.6135 560.899 73.1137 561.765C75.565 563.18 76.4047 566.315 74.9896 568.766C74.6498 569.354 74.211 569.85 73.7063 570.243C74.6327 569.815 75.4405 569.107 75.9896 568.156C77.4048 565.704 76.565 562.57 74.1137 561.155C72.2509 560.08 69.9937 560.307 68.3962 561.553Z" fill="black"/>
</g>
</g>
<path d="M164.993 602.561L165.678 601.374C166.009 600.801 165.202 599.719 163.885 598.968L78.7443 550.432C77.4498 549.694 76.1477 549.553 75.8228 550.115L75.6741 550.373C75.3493 550.936 76.1226 551.993 77.4088 552.745L162.013 602.21C163.322 602.976 164.663 603.133 164.993 602.561Z" fill="#1F304E"/>
<path d="M102.351 566.452L103.502 566.213C104.057 566.097 104.466 565.815 104.411 565.585L100.849 550.751C100.795 550.525 100.313 550.435 99.7674 550.549L99.5175 550.601C98.9718 550.715 98.5656 550.99 98.6061 551.218L101.267 566.24C101.308 566.472 101.795 566.568 102.351 566.452Z" fill="#1F304E"/>
<path d="M90.685 559.182L91.0493 560.139C91.2249 560.6 91.1413 561.039 90.8634 561.114L72.9027 565.968C72.6296 566.042 72.2713 565.736 72.0986 565.283L72.0194 565.075C71.8467 564.622 71.9241 564.189 72.1928 564.104L89.8685 558.501C90.1419 558.415 90.5092 558.721 90.685 559.182Z" fill="#1F304E"/>
</g>
<g clip-path="url(#clip3_311_16353)">
<path d="M1498.58 401.559C1496.21 403.926 1492.39 403.937 1490.03 401.584C1487.68 399.232 1487.69 395.407 1490.06 393.04C1492.43 390.674 1496.25 390.663 1498.6 393.015C1500.96 395.368 1500.94 399.193 1498.58 401.559Z" fill="#10A07D"/>
<g opacity="0.15">
<g opacity="0.15">
<path opacity="0.15" d="M1499.9 394.838C1500.22 396.718 1499.65 398.724 1498.19 400.181C1495.81 402.561 1491.97 402.572 1489.6 400.206C1489.03 399.638 1488.6 398.985 1488.31 398.287C1488.51 399.479 1489.07 400.619 1489.99 401.537C1492.35 403.903 1496.2 403.892 1498.58 401.512C1500.39 399.704 1500.83 397.047 1499.9 394.838Z" fill="black"/>
</g>
</g>
<path d="M1483.27 378.864C1481.48 380.648 1478.6 380.656 1476.83 378.883C1475.05 377.109 1475.06 374.226 1476.84 372.442C1478.63 370.658 1481.51 370.65 1483.28 372.423C1485.06 374.197 1485.05 377.08 1483.27 378.864Z" fill="#10A07D"/>
<g opacity="0.15">
<g opacity="0.15">
<path opacity="0.15" d="M1484.26 373.798C1484.5 375.215 1484.07 376.727 1482.98 377.825C1481.18 379.62 1478.28 379.628 1476.5 377.844C1476.07 377.416 1475.75 376.924 1475.52 376.398C1475.68 377.296 1476.1 378.156 1476.79 378.848C1478.57 380.632 1481.47 380.623 1483.27 378.829C1484.63 377.466 1484.96 375.463 1484.26 373.798Z" fill="black"/>
</g>
</g>
<path d="M1481.77 390.567L1480.74 390.628C1480.25 390.657 1479.84 390.512 1479.83 390.305L1479.52 376.945C1479.52 376.742 1479.9 376.555 1480.39 376.526L1480.62 376.513C1481.1 376.484 1481.51 376.624 1481.53 376.826L1482.64 390.139C1482.66 390.345 1482.27 390.537 1481.77 390.567Z" fill="#1F304E"/>
<path d="M1475.23 396.54L1475.13 397.432C1475.09 397.862 1475.26 398.214 1475.51 398.214L1491.81 398.201C1492.06 398.201 1492.29 397.861 1492.34 397.438L1492.36 397.244C1492.4 396.821 1492.24 396.473 1491.99 396.462L1475.77 395.777C1475.51 395.766 1475.27 396.109 1475.23 396.54Z" fill="#1F304E"/>
<path d="M1527.39 372.82C1519.41 380.802 1506.5 380.84 1498.57 372.904C1490.63 364.969 1490.67 352.064 1498.65 344.082C1506.63 336.1 1519.54 336.062 1527.47 343.998C1535.41 351.934 1535.37 364.838 1527.39 372.82Z" fill="#096A62"/>
<g opacity="0.15">
<g opacity="0.15">
<path opacity="0.15" d="M1531.94 350.565C1533.01 356.87 1531.1 363.6 1526.22 368.485C1518.24 376.467 1505.33 376.505 1497.4 368.569C1495.49 366.664 1494.05 364.473 1493.06 362.132C1493.74 366.129 1495.62 369.956 1498.7 373.035C1506.63 380.97 1519.54 380.933 1527.52 372.95C1533.59 366.884 1535.06 357.976 1531.94 350.565Z" fill="black"/>
</g>
</g>
<path d="M1431.38 441.014L1430.51 440.145C1430.09 439.725 1430.61 438.532 1431.66 437.491L1499.57 370.266C1500.6 369.244 1501.76 368.753 1502.17 369.165L1502.36 369.354C1502.77 369.766 1502.28 370.928 1501.26 371.96L1434.04 439.866C1433 440.917 1431.8 441.433 1431.38 441.014Z" fill="#1F304E"/>
</g>
<g clip-path="url(#clip4_311_16353)">
<path d="M1595.74 1551.13C1585.04 1564.27 1587.04 1583.78 1600.18 1594.48C1613.32 1605.17 1632.82 1603.18 1643.52 1590.04C1654.22 1576.89 1652.22 1557.39 1639.08 1546.69C1625.94 1535.99 1606.44 1537.99 1595.74 1551.13Z" fill="#096A62"/>
<path d="M1589.72 1580.22C1584.01 1587.23 1585.08 1597.63 1592.08 1603.34C1599.09 1609.04 1609.49 1607.98 1615.2 1600.97C1620.91 1593.96 1619.84 1583.56 1612.83 1577.85C1605.82 1572.15 1595.42 1573.21 1589.72 1580.22Z" fill="#10A07D"/>
<path d="M1618.38 1535.8C1614.75 1540.25 1615.43 1546.86 1619.88 1550.48C1624.34 1554.11 1630.95 1553.43 1634.57 1548.98C1638.2 1544.53 1637.52 1537.92 1633.07 1534.29C1628.61 1530.67 1622 1531.34 1618.38 1535.8Z" fill="#10A07D"/>
<path d="M1544.96 1509.95L1543.39 1511.88C1542.63 1512.81 1542.78 1514.18 1543.72 1514.93L1604.44 1563.11C1605.36 1563.84 1606.7 1563.69 1607.45 1562.78L1607.79 1562.36C1608.53 1561.45 1608.4 1560.1 1607.5 1559.35L1548.01 1509.66C1547.08 1508.89 1545.71 1509.02 1544.96 1509.95Z" fill="#1F304E"/>
<path d="M1597.01 1553.07L1595.11 1553.16C1594.2 1553.2 1593.47 1553.55 1593.5 1553.93L1595.37 1578.47C1595.4 1578.84 1596.14 1579.11 1597.04 1579.07L1597.45 1579.05C1598.35 1579.01 1599.07 1578.67 1599.06 1578.3L1598.68 1553.69C1598.67 1553.31 1597.92 1553.03 1597.01 1553.07Z" fill="#1F304E"/>
<path d="M1588.44 1547.06L1588.11 1545.45C1587.95 1544.67 1588.19 1543.99 1588.66 1543.94L1618.51 1540.82C1618.96 1540.77 1619.46 1541.35 1619.62 1542.12L1619.69 1542.47C1619.85 1543.23 1619.61 1543.9 1619.16 1543.97L1589.57 1548.36C1589.11 1548.43 1588.61 1547.85 1588.44 1547.06Z" fill="#1F304E"/>
</g>
<g clip-path="url(#clip5_311_16353)">
<path d="M1696.47 1180.61C1701.04 1180.74 1705.5 1183.04 1708.24 1186.69C1709.25 1188.03 1710.04 1189.55 1710.41 1191.19C1710.78 1192.82 1710.72 1194.58 1710.08 1196.13C1709.49 1197.57 1708.44 1198.79 1707.19 1199.72C1705.95 1200.66 1704.51 1201.32 1703.04 1201.83C1700.1 1202.86 1696.97 1203.32 1694.12 1204.57C1691.79 1205.58 1689.7 1207.11 1687.33 1208.02C1686.14 1208.48 1684.88 1208.78 1683.61 1208.77C1682.34 1208.75 1681.06 1208.39 1680.04 1207.63C1679.31 1207.09 1678.74 1206.36 1678.33 1205.56C1677.91 1204.75 1677.66 1203.87 1677.52 1202.98C1677.23 1201.19 1677.37 1199.37 1677.41 1197.56C1677.53 1192.73 1676.97 1187.82 1678.16 1183.14C1678.75 1180.8 1679.8 1178.54 1681.42 1176.76C1683.05 1174.98 1685.3 1173.71 1687.7 1173.51C1688.52 1173.44 1689.34 1173.49 1690.14 1173.67C1691.77 1174.02 1693.29 1174.9 1694.41 1176.13C1695.54 1177.36 1696.27 1178.95 1696.47 1180.61Z" fill="#10A07D"/>
<path d="M1703.79 1192.75C1703.84 1192.64 1703.79 1192.52 1703.68 1192.48C1703.68 1192.48 1692.18 1185.74 1678.94 1189.07C1678.44 1189.25 1678.26 1189.72 1678.34 1190.05C1678.41 1190.39 1678.79 1190.34 1678.9 1190.31C1682.22 1189.48 1683.73 1189.44 1686.86 1189.52C1686.91 1189.54 1688.44 1190.29 1690.05 1191.67C1691.68 1193.08 1693.34 1195.1 1693.52 1197.58C1693.53 1197.7 1693.63 1197.78 1693.75 1197.77C1693.86 1197.77 1693.95 1197.66 1693.94 1197.55C1693.75 1194.9 1692 1192.8 1690.32 1191.36C1689.29 1190.47 1688.42 1189.92 1687.8 1189.56C1696.57 1189.97 1703.52 1192.86 1703.52 1192.86C1703.62 1192.91 1703.75 1192.86 1703.79 1192.75Z" fill="#85E380"/>
<path d="M1710.45 1194.93C1710.72 1193.71 1710.69 1192.42 1710.41 1191.19C1710.04 1189.55 1709.25 1188.03 1708.24 1186.69C1708.04 1186.42 1707.82 1186.16 1707.6 1185.9C1708.35 1187.04 1708.93 1188.3 1709.23 1189.63C1709.6 1191.26 1709.53 1193.02 1708.9 1194.57C1708.31 1196.01 1707.26 1197.23 1706.01 1198.17C1704.76 1199.1 1703.33 1199.76 1701.86 1200.28C1698.92 1201.3 1695.79 1201.76 1692.94 1203.01C1690.61 1204.03 1688.52 1205.55 1686.15 1206.47C1684.96 1206.93 1683.7 1207.23 1682.43 1207.21C1681.16 1207.19 1679.88 1206.83 1678.86 1206.07C1678.7 1205.95 1678.55 1205.82 1678.4 1205.69C1678.81 1206.44 1679.35 1207.12 1680.04 1207.63C1681.06 1208.39 1682.34 1208.75 1683.61 1208.77C1684.88 1208.78 1686.14 1208.48 1687.33 1208.02C1689.7 1207.11 1691.79 1205.58 1694.12 1204.57C1696.97 1203.32 1700.1 1202.86 1703.04 1201.83C1704.51 1201.32 1705.95 1200.66 1707.19 1199.72C1708.44 1198.79 1709.49 1197.57 1710.08 1196.13C1710.24 1195.74 1710.36 1195.34 1710.45 1194.93Z" fill="#48D581"/>
</g>
<g clip-path="url(#clip6_311_16353)">
<path fill-rule="evenodd" clip-rule="evenodd" d="M1695.87 1198.09L1697.22 1200.57C1697.33 1200.78 1697.15 1201.02 1696.92 1200.96L1687.99 1198.83C1686.84 1201.25 1684.11 1202.63 1681.4 1201.98L1678.09 1201.19L1678.11 1201.26C1678.13 1201.3 1678.13 1201.4 1678.13 1201.48L1678.15 1201.73C1678.16 1201.9 1678.18 1202.07 1678.2 1202.23C1678.24 1202.56 1678.32 1202.88 1678.41 1203.16C1678.5 1203.45 1678.6 1203.73 1678.74 1203.96C1678.79 1204.09 1678.88 1204.19 1678.94 1204.3C1679.02 1204.41 1679.1 1204.51 1679.18 1204.61C1679.35 1204.8 1679.54 1204.97 1679.73 1205.11C1679.93 1205.25 1680.14 1205.37 1680.36 1205.47C1680.48 1205.52 1680.59 1205.56 1680.72 1205.6C1680.84 1205.63 1680.97 1205.65 1681.09 1205.71C1681.21 1205.77 1681.34 1205.85 1681.47 1205.97C1681.6 1206.09 1681.74 1206.23 1681.88 1206.46L1682.32 1207.18C1682.67 1207.76 1682.55 1208.48 1682.09 1208.93C1681.81 1209.2 1681.54 1209.34 1681.26 1209.43C1680.97 1209.52 1680.68 1209.55 1680.4 1209.54C1680.26 1209.53 1680.12 1209.51 1679.98 1209.48C1679.84 1209.44 1679.7 1209.4 1679.56 1209.36C1679.29 1209.27 1679.01 1209.17 1678.75 1209.05C1678.22 1208.8 1677.71 1208.47 1677.27 1208.09C1676.83 1207.7 1676.45 1207.25 1676.13 1206.77C1675.5 1205.8 1675.18 1204.66 1675.14 1203.6C1675.11 1203.06 1675.17 1202.55 1675.26 1202.05C1675.31 1201.79 1675.38 1201.55 1675.45 1201.31C1675.48 1201.19 1675.53 1201.07 1675.58 1200.94C1675.63 1200.82 1675.67 1200.71 1675.74 1200.55C1675.78 1200.46 1675.84 1200.38 1675.9 1200.3L1678.75 1188.38C1679.17 1186.61 1680.96 1185.52 1682.73 1185.94L1688.61 1187.34L1688.61 1187.34L1697.9 1189.57L1697.9 1189.57L1699.55 1189.96C1699.78 1190.01 1699.84 1190.31 1699.64 1190.45L1697.31 1192.04L1695.87 1198.09Z" fill="#F07E46"/>
<path d="M1695.11 1193.19C1695.18 1192.9 1695.47 1192.72 1695.76 1192.79L1696.53 1192.97C1696.82 1193.04 1697 1193.33 1696.93 1193.62C1696.86 1193.91 1696.57 1194.09 1696.28 1194.02L1695.51 1193.84C1695.22 1193.77 1695.04 1193.48 1695.11 1193.19Z" fill="#793D11"/>
<path d="M1694.76 1194.66C1694.83 1194.37 1695.12 1194.19 1695.41 1194.26L1696.18 1194.45C1696.47 1194.51 1696.65 1194.81 1696.58 1195.1C1696.51 1195.39 1696.22 1195.57 1695.93 1195.5L1695.16 1195.31C1694.87 1195.25 1694.69 1194.95 1694.76 1194.66Z" fill="#793D11"/>
<path d="M1685.33 1199.22C1685.59 1199.07 1685.92 1199.17 1686.06 1199.43L1686.45 1200.12C1686.59 1200.38 1686.5 1200.71 1686.24 1200.86C1685.98 1201 1685.64 1200.91 1685.5 1200.65L1685.12 1199.95C1684.97 1199.69 1685.07 1199.36 1685.33 1199.22Z" fill="#793D11"/>
<path d="M1683.75 1200.09C1684.01 1199.95 1684.34 1200.04 1684.49 1200.3L1684.87 1201C1685.02 1201.26 1684.92 1201.59 1684.66 1201.73C1684.4 1201.88 1684.07 1201.78 1683.92 1201.52L1683.54 1200.83C1683.4 1200.57 1683.49 1200.24 1683.75 1200.09Z" fill="#793D11"/>
<path d="M1694.4 1196.17C1694.47 1195.88 1694.76 1195.7 1695.05 1195.76L1695.82 1195.95C1696.11 1196.02 1696.29 1196.31 1696.22 1196.6C1696.15 1196.89 1695.86 1197.07 1695.57 1197L1694.8 1196.82C1694.51 1196.75 1694.33 1196.45 1694.4 1196.17Z" fill="#793D11"/>
<path d="M1691.07 1194.14C1690.92 1194.1 1690.83 1193.91 1690.88 1193.7C1690.93 1193.5 1691.09 1193.37 1691.24 1193.4C1691.39 1193.44 1691.48 1193.63 1691.43 1193.83C1691.38 1194.04 1691.22 1194.17 1691.07 1194.14Z" fill="#793D11"/>
<path d="M1690.74 1193.64C1690.49 1193.58 1690.34 1193.33 1690.4 1193.09C1690.46 1192.84 1690.71 1192.69 1690.95 1192.75" stroke="#793D11" stroke-width="3.5" stroke-miterlimit="10"/>
<path d="M1690.51 1194.59C1690.27 1194.53 1690.11 1194.28 1690.17 1194.04C1690.23 1193.79 1690.48 1193.64 1690.72 1193.7" stroke="#793D11" stroke-width="3.5" stroke-miterlimit="10"/>
<path d="M1691.16 1193.77L1690.54 1193.62" stroke="#793D11" stroke-width="5" stroke-miterlimit="10"/>
<path d="M1693.65 1190.21C1692.82 1190.01 1691.98 1190.53 1691.78 1191.36C1691.58 1192.19 1692.1 1193.02 1692.93 1193.22C1693.76 1193.42 1694.59 1192.91 1694.79 1192.08C1694.99 1191.25 1694.48 1190.41 1693.65 1190.21Z" fill="#F5E35F"/>
<path d="M1693.53 1190.71C1692.89 1190.56 1692.25 1190.95 1692.09 1191.59C1691.94 1192.23 1692.33 1192.88 1692.97 1193.03C1693.62 1193.18 1694.26 1192.79 1694.41 1192.15C1694.56 1191.51 1694.17 1190.86 1693.53 1190.71Z" fill="#1D1D1B"/>
<path d="M1693.86 1191.73C1693.74 1191.7 1693.67 1191.59 1693.7 1191.47C1693.73 1191.36 1693.84 1191.29 1693.96 1191.31C1694.07 1191.34 1694.14 1191.46 1694.12 1191.57C1694.09 1191.69 1693.97 1191.76 1693.86 1191.73Z" fill="white"/>
<path d="M1692.81 1191.9C1692.59 1191.85 1692.45 1191.62 1692.5 1191.4C1692.56 1191.17 1692.78 1191.03 1693.01 1191.09C1693.23 1191.14 1693.37 1191.37 1693.32 1191.59C1693.26 1191.82 1693.04 1191.95 1692.81 1191.9Z" fill="white"/>
<path d="M1692.58 1194.69C1691.74 1194.5 1690.91 1195.01 1690.71 1195.84C1690.51 1196.67 1691.03 1197.51 1691.86 1197.7C1692.69 1197.9 1693.52 1197.39 1693.72 1196.56C1693.92 1195.73 1693.41 1194.89 1692.58 1194.69Z" fill="#F5E35F"/>
<path d="M1692.46 1195.19C1691.82 1195.04 1691.17 1195.43 1691.02 1196.07C1690.87 1196.72 1691.26 1197.36 1691.9 1197.51C1692.54 1197.66 1693.19 1197.27 1693.34 1196.63C1693.49 1195.99 1693.1 1195.35 1692.46 1195.19Z" fill="#1D1D1B"/>
<path d="M1692.79 1196.21C1692.67 1196.18 1692.6 1196.07 1692.63 1195.95C1692.66 1195.84 1692.77 1195.77 1692.89 1195.79C1693 1195.82 1693.07 1195.94 1693.04 1196.05C1693.02 1196.17 1692.9 1196.24 1692.79 1196.21Z" fill="white"/>
<path d="M1691.74 1196.38C1691.52 1196.33 1691.38 1196.1 1691.43 1195.88C1691.49 1195.65 1691.71 1195.51 1691.94 1195.57C1692.16 1195.62 1692.3 1195.85 1692.25 1196.07C1692.19 1196.3 1691.97 1196.44 1691.74 1196.38Z" fill="white"/>
</g>
<g clip-path="url(#clip7_311_16353)">
<path d="M1690.6 1194.51C1695.16 1194.64 1699.62 1196.95 1702.37 1200.6C1703.38 1201.93 1704.17 1203.45 1704.54 1205.09C1704.91 1206.72 1704.84 1208.48 1704.21 1210.03C1703.62 1211.47 1702.56 1212.69 1701.32 1213.63C1700.07 1214.56 1698.64 1215.22 1697.17 1215.74C1694.23 1216.76 1691.1 1217.22 1688.24 1218.47C1685.91 1219.49 1683.82 1221.01 1681.45 1221.93C1680.27 1222.38 1679.01 1222.69 1677.74 1222.67C1676.47 1222.65 1675.18 1222.29 1674.16 1221.53C1673.44 1220.99 1672.86 1220.26 1672.45 1219.46C1672.04 1218.65 1671.78 1217.77 1671.64 1216.88C1671.35 1215.09 1671.49 1213.27 1671.53 1211.46C1671.65 1206.64 1671.1 1201.72 1672.28 1197.04C1672.88 1194.7 1673.92 1192.44 1675.55 1190.66C1677.18 1188.88 1679.42 1187.61 1681.83 1187.41C1682.64 1187.34 1683.47 1187.39 1684.27 1187.57C1685.9 1187.93 1687.41 1188.8 1688.54 1190.03C1689.66 1191.27 1690.39 1192.85 1690.6 1194.51Z" fill="#10A07D"/>
<path d="M1697.92 1206.65C1697.96 1206.55 1697.91 1206.42 1697.8 1206.38C1697.8 1206.38 1686.31 1199.65 1673.06 1202.97C1672.57 1203.15 1672.39 1203.62 1672.46 1203.95C1672.54 1204.29 1672.91 1204.24 1673.03 1204.21C1676.35 1203.38 1677.85 1203.35 1680.98 1203.42C1681.03 1203.44 1682.56 1204.2 1684.17 1205.58C1685.81 1206.98 1687.46 1209 1687.65 1211.48C1687.65 1211.6 1687.75 1211.69 1687.87 1211.68C1687.99 1211.67 1688.07 1211.57 1688.07 1211.45C1687.87 1208.8 1686.12 1206.7 1684.45 1205.26C1683.41 1204.37 1682.55 1203.83 1681.92 1203.47C1690.69 1203.87 1697.64 1206.77 1697.64 1206.77C1697.75 1206.81 1697.87 1206.76 1697.92 1206.65Z" fill="#85E380"/>
<path d="M1704.58 1208.83C1704.85 1207.61 1704.81 1206.32 1704.54 1205.09C1704.17 1203.46 1703.38 1201.94 1702.37 1200.6C1702.16 1200.32 1701.94 1200.06 1701.72 1199.8C1702.47 1200.95 1703.06 1202.2 1703.36 1203.53C1703.73 1205.17 1703.66 1206.92 1703.02 1208.47C1702.44 1209.91 1701.38 1211.13 1700.13 1212.07C1698.89 1213 1697.46 1213.67 1695.99 1214.18C1693.05 1215.2 1689.91 1215.66 1687.06 1216.91C1684.73 1217.93 1682.64 1219.45 1680.27 1220.37C1679.09 1220.83 1677.83 1221.13 1676.56 1221.11C1675.29 1221.09 1674 1220.73 1672.98 1219.98C1672.82 1219.86 1672.67 1219.72 1672.52 1219.59C1672.93 1220.34 1673.48 1221.02 1674.16 1221.53C1675.18 1222.29 1676.47 1222.65 1677.74 1222.67C1679.01 1222.69 1680.27 1222.39 1681.45 1221.93C1683.82 1221.01 1685.91 1219.49 1688.24 1218.47C1691.1 1217.22 1694.23 1216.76 1697.17 1215.74C1698.64 1215.22 1700.07 1214.56 1701.32 1213.63C1702.56 1212.69 1703.62 1211.47 1704.21 1210.03C1704.36 1209.64 1704.49 1209.24 1704.58 1208.83Z" fill="#48D581"/>
</g>
<g clip-path="url(#clip8_311_16353)">
<path d="M1048 226.647L999.989 136.363L963.769 69.3026C958.859 60.212 943.991 60.212 939.081 69.3026L937.738 71.7777C936.669 73.7613 933.421 73.7613 932.349 71.7777L897.585 7.39385C892.675 -1.70029 877.807 -1.70029 872.893 7.39385L820.025 105.297L814.883 114.975C813.818 116.973 810.559 116.98 809.482 114.975C804.572 105.884 789.704 105.884 784.794 114.975L760.855 159.304L725 226.739L797.132 227L841.188 226.841L885.239 227L918.329 226.88L951.419 227L1048 226.647Z" fill="#075153"/>
<path opacity="0.15" d="M954.964 86.2071C960.048 86.2384 964.939 84.4007 968.573 81.0943C968.868 80.8232 969.065 80.472 969.133 80.0909C969.201 79.7099 969.138 79.3186 968.953 78.9728L965.701 72.9619C960.912 64.0905 950.198 60.2082 940.956 66.9227C939.134 68.2416 938.754 70.7167 937.232 72.4846C937.049 72.6648 936.902 72.8744 936.799 73.1034C936.741 73.3679 936.749 73.6411 936.821 73.9025C938.86 80.9706 946.204 86.2071 954.964 86.2071Z" fill="black"/>
<path opacity="0.15" d="M898.559 9.9391C893.352 0.289832 877.571 0.289832 872.364 9.9391L853.937 43.8441C858.12 48.6387 864.925 51.6017 872.376 51.6017C875.344 51.6058 878.287 51.1024 881.059 50.1167C885.3 55.7493 892.618 59.4725 900.939 59.4725C909.045 59.4725 916.21 55.2472 920.497 49.855L898.559 9.9391Z" fill="black"/>
<path d="M897.433 6.82061C892.523 -2.27354 877.655 -2.27354 872.741 6.82061L855.458 39.6012C859.398 44.12 865.727 46.0824 872.756 46.0824C875.553 46.0825 878.327 45.603 880.937 44.6681C884.935 49.9718 891.83 53.4864 899.673 53.4864C907.314 53.4864 914.176 50.6825 918.215 45.598L897.433 6.82061Z" fill="#EBF3FA"/>
<path d="M954.527 80.6841C956.902 80.7005 959.253 80.2398 961.42 79.3336C963.586 78.4274 965.516 77.097 967.078 75.4334L963.769 69.3023C958.859 60.2117 943.991 60.2117 939.081 69.3023L938.826 69.7761C940.435 76.0204 946.851 80.6841 954.527 80.6841Z" fill="#EBF3FA"/>
</g>
<g clip-path="url(#clip9_311_16353)">
<path d="M764.866 211.712C772.683 211.638 779.018 205.183 778.945 197.366C778.871 189.549 772.416 183.214 764.599 183.287C756.782 183.361 750.447 189.816 750.52 197.633C750.594 205.45 757.049 211.785 764.866 211.712Z" fill="#096A62"/>
<path d="M776.967 205.281C781.135 205.242 784.514 201.799 784.475 197.63C784.436 193.461 780.993 190.082 776.824 190.121C772.655 190.16 769.276 193.603 769.315 197.772C769.355 201.941 772.798 205.32 776.967 205.281Z" fill="#10A07D"/>
<path d="M752.752 208.194C755.401 208.169 757.548 205.981 757.523 203.332C757.498 200.683 755.31 198.536 752.661 198.561C750.012 198.586 747.865 200.774 747.89 203.423C747.915 206.072 750.103 208.219 752.752 208.194Z" fill="#10A07D"/>
<path d="M765.208 241.873L766.355 241.862C766.908 241.857 767.351 241.4 767.339 240.847L766.554 205.096C766.542 204.553 766.095 204.12 765.551 204.125L765.302 204.127C764.759 204.132 764.32 204.574 764.318 205.117L764.206 240.876C764.204 241.43 764.655 241.878 765.208 241.873Z" fill="#1F304E"/>
<path d="M765.181 210.691L765.77 211.338C766.055 211.65 766.39 211.805 766.517 211.683L774.679 203.79C774.803 203.67 774.679 203.327 774.399 203.02L774.271 202.879C773.992 202.572 773.662 202.416 773.531 202.528L764.908 209.915C764.774 210.03 764.897 210.378 765.181 210.691Z" fill="#1F304E"/>
<path d="M765.571 215.5L765.095 216.095C764.866 216.383 764.553 216.495 764.4 216.345L754.496 206.667C754.345 206.52 754.405 206.175 754.63 205.893L754.734 205.763C754.959 205.481 755.266 205.367 755.422 205.507L765.698 214.719C765.857 214.862 765.8 215.213 765.571 215.5Z" fill="#1F304E"/>
</g>
<g clip-path="url(#clip10_311_16353)">
<path d="M894.73 207.973C888.743 208.029 883.798 203.177 883.742 197.189C883.685 191.202 888.538 186.257 894.525 186.201C900.512 186.145 905.457 190.997 905.513 196.985C905.57 202.972 900.717 207.917 894.73 207.973Z" fill="#096A62"/>
<path d="M885.372 203.222C882.178 203.252 879.541 200.664 879.511 197.471C879.481 194.277 882.069 191.64 885.263 191.61C888.456 191.58 891.093 194.168 891.123 197.361C891.153 200.555 888.565 203.192 885.372 203.222Z" fill="#10A07D"/>
<path d="M903.957 205.103C901.928 205.122 900.253 203.478 900.234 201.449C900.215 199.42 901.859 197.744 903.888 197.725C905.917 197.706 907.593 199.351 907.612 201.38C907.631 203.409 905.986 205.084 903.957 205.103Z" fill="#10A07D"/>
<path d="M894.903 231.076L894.024 231.084C893.6 231.088 893.255 230.745 893.256 230.321L893.343 202.931C893.344 202.514 893.68 202.176 894.096 202.172L894.287 202.171C894.704 202.167 895.046 202.498 895.055 202.915L895.656 230.298C895.665 230.722 895.326 231.072 894.903 231.076Z" fill="#1F304E"/>
<path d="M894.474 207.195L894.032 207.699C893.819 207.942 893.564 208.066 893.466 207.974L887.101 202.047C887.004 201.957 887.095 201.692 887.304 201.454L887.4 201.344C887.61 201.105 887.86 200.981 887.962 201.065L894.673 206.598C894.777 206.683 894.687 206.952 894.474 207.195Z" fill="#1F304E"/>
<path d="M894.245 210.884L894.617 211.333C894.797 211.55 895.038 211.631 895.154 211.514L902.599 203.96C902.712 203.845 902.661 203.581 902.485 203.369L902.404 203.271C902.227 203.058 901.991 202.975 901.873 203.085L894.136 210.288C894.016 210.399 894.065 210.667 894.245 210.884Z" fill="#1F304E"/>
</g>
<g clip-path="url(#clip11_311_16353)">
<path d="M776.743 242.934C777.238 240.45 776.544 237.755 774.912 235.819C774.313 235.108 773.59 234.492 772.752 234.09C771.914 233.688 770.959 233.507 770.042 233.658C769.19 233.798 768.399 234.217 767.74 234.774C767.081 235.332 766.546 236.023 766.087 236.754C765.168 238.216 764.533 239.852 763.505 241.239C762.667 242.371 761.585 243.312 760.796 244.48C760.401 245.064 760.083 245.707 759.935 246.396C759.788 247.085 759.822 247.823 760.105 248.468C760.307 248.927 760.631 249.328 761.015 249.65C761.4 249.973 761.844 250.219 762.308 250.408C763.238 250.786 764.241 250.936 765.224 251.136C767.845 251.668 770.434 252.578 773.108 252.517C774.446 252.486 775.795 252.201 776.959 251.541C778.123 250.881 779.088 249.825 779.494 248.551C779.632 248.119 779.705 247.666 779.71 247.213C779.719 246.288 779.434 245.362 778.907 244.602C778.38 243.841 777.613 243.25 776.743 242.934Z" fill="#10A07D"/>
<path d="M771.086 237.475C771.15 237.464 771.21 237.506 771.221 237.569C771.221 237.569 773.437 244.615 770 251.363C769.842 251.607 769.566 251.645 769.395 251.563C769.223 251.481 769.295 251.284 769.325 251.227C770.186 249.536 770.39 248.728 770.737 247.024C770.73 246.996 770.514 246.074 769.968 245.034C769.412 243.978 768.525 242.832 767.206 242.426C767.144 242.408 767.11 242.342 767.129 242.281C767.148 242.219 767.213 242.185 767.275 242.204C768.683 242.636 769.603 243.84 770.173 244.926C770.526 245.596 770.712 246.129 770.829 246.513C771.697 241.724 770.992 237.61 770.992 237.61C770.98 237.546 771.022 237.486 771.086 237.475Z" fill="#85E380"/>
<path d="M770.735 233.606C771.429 233.612 772.123 233.789 772.752 234.09C773.59 234.492 774.313 235.108 774.912 235.819C775.035 235.964 775.149 236.114 775.261 236.267C774.735 235.72 774.131 235.249 773.448 234.921C772.61 234.519 771.654 234.339 770.738 234.489C769.886 234.629 769.095 235.049 768.436 235.606C767.777 236.163 767.242 236.855 766.783 237.585C765.864 239.047 765.229 240.683 764.201 242.07C763.363 243.202 762.281 244.144 761.492 245.311C761.097 245.895 760.778 246.538 760.631 247.227C760.484 247.916 760.518 248.655 760.801 249.299C760.846 249.401 760.899 249.498 760.954 249.594C760.597 249.281 760.297 248.902 760.106 248.468C759.822 247.823 759.788 247.085 759.935 246.396C760.083 245.707 760.402 245.064 760.796 244.48C761.585 243.312 762.667 242.371 763.506 241.239C764.533 239.852 765.168 238.216 766.087 236.754C766.546 236.023 767.08 235.332 767.74 234.774C768.399 234.217 769.19 233.798 770.042 233.658C770.271 233.62 770.502 233.603 770.735 233.606Z" fill="#48D581"/>
</g>
<g clip-path="url(#clip12_311_16353)">
<path d="M837.318 229.562C837.347 232.647 835.114 235.206 832.372 235.232C829.63 235.258 827.349 232.741 827.32 229.656C827.291 226.571 829.524 224.011 832.266 223.985C835.008 223.959 837.289 226.477 837.318 229.562Z" fill="#85E380"/>
<path d="M850.618 236.681C850.642 239.256 848.778 241.393 846.489 241.414C844.2 241.436 842.297 239.334 842.273 236.759C842.248 234.184 844.112 232.048 846.401 232.026C848.69 232.005 850.593 234.106 850.618 236.681Z" fill="#85E380"/>
<path d="M824.716 233.779C824.745 236.871 822.507 239.437 819.758 239.463C817.009 239.489 814.724 236.966 814.695 233.873C814.666 230.781 816.903 228.215 819.652 228.189C822.401 228.163 824.687 230.687 824.716 233.779Z" fill="#85E380"/>
<path d="M845.54 233.479C845.569 236.564 843.337 239.123 840.595 239.149C837.853 239.175 835.572 236.658 835.543 233.573C835.514 230.488 837.747 227.928 840.489 227.902C843.231 227.876 845.511 230.394 845.54 233.479Z" fill="#85E380"/>
<path d="M842.251 231.394C842.28 234.479 840.048 237.038 837.306 237.064C834.563 237.09 832.283 234.573 832.254 231.488C832.225 228.403 834.458 225.843 837.2 225.817C839.942 225.791 842.222 228.309 842.251 231.394Z" fill="#85E380"/>
<path d="M838.142 232.898C838.167 235.539 836.256 237.731 833.908 237.753C831.56 237.775 829.608 235.62 829.583 232.979C829.559 230.337 831.47 228.146 833.818 228.124C836.165 228.102 838.118 230.257 838.142 232.898Z" fill="#10A07D"/>
<path d="M829.685 231.611C829.714 234.697 827.481 237.256 824.739 237.282C821.997 237.308 819.717 234.791 819.688 231.705C819.659 228.621 821.891 226.061 824.633 226.035C827.376 226.009 829.656 228.527 829.685 231.611Z" fill="#85E380"/>
<path d="M848.474 237.364C848.498 239.958 846.62 242.111 844.314 242.133C842.007 242.155 840.089 240.037 840.065 237.443C840.041 234.848 841.918 232.695 844.225 232.673C846.531 232.652 848.449 234.769 848.474 237.364Z" fill="#10A07D"/>
<path d="M820.923 236.821C820.952 239.914 818.714 242.479 815.965 242.505C813.216 242.531 810.931 240.008 810.902 236.915C810.873 233.823 813.11 231.257 815.859 231.231C818.608 231.205 820.894 233.729 820.923 236.821Z" fill="#85E380"/>
<path d="M827.219 232.403C827.24 234.637 825.623 236.49 823.638 236.508C821.653 236.527 820.003 234.705 819.982 232.471C819.961 230.238 821.577 228.385 823.562 228.366C825.547 228.348 827.198 230.17 827.219 232.403Z" fill="#10A07D"/>
<path d="M823.919 235.421C823.94 237.654 822.324 239.507 820.339 239.526C818.354 239.544 816.703 237.722 816.682 235.489C816.661 233.256 818.277 231.403 820.262 231.384C822.247 231.365 823.898 233.188 823.919 235.421Z" fill="#10A07D"/>
<path d="M845.229 234.788C845.264 238.57 842.528 241.707 839.166 241.739C835.805 241.771 833.01 238.685 832.974 234.903C832.938 231.122 835.675 227.984 839.037 227.952C842.398 227.921 845.193 231.006 845.229 234.788Z" fill="#10A07D"/>
<path d="M834.504 231.573C834.532 234.492 832.419 236.915 829.824 236.939C827.229 236.963 825.071 234.581 825.043 231.662C825.016 228.742 827.129 226.32 829.724 226.295C832.319 226.271 834.477 228.653 834.504 231.573Z" fill="#10A07D"/>
<path d="M836.009 236.665C836.042 240.195 833.488 243.125 830.35 243.154C827.212 243.184 824.602 240.303 824.569 236.773C824.536 233.243 827.091 230.314 830.229 230.284C833.367 230.255 835.976 233.135 836.009 236.665Z" fill="#096A62"/>
<path d="M841.128 238.382C841.154 241.185 839.126 243.511 836.634 243.534C834.142 243.558 832.07 241.27 832.044 238.467C832.018 235.664 834.046 233.338 836.538 233.315C839.03 233.291 841.102 235.579 841.128 238.382Z" fill="#096A62"/>
<path d="M821.768 237.933C821.789 240.166 820.172 242.019 818.187 242.038C816.202 242.056 814.551 240.234 814.53 238.001C814.509 235.767 816.126 233.914 818.111 233.896C820.096 233.877 821.747 235.699 821.768 237.933Z" fill="#10A07D"/>
<path d="M827.803 238.732C827.826 241.199 826.041 243.246 823.848 243.267C821.655 243.287 819.831 241.274 819.808 238.807C819.785 236.34 821.57 234.293 823.763 234.272C825.956 234.251 827.78 236.265 827.803 238.732Z" fill="#096A62"/>
<path d="M843.224 238.61C843.243 240.614 841.793 242.276 840.012 242.293C838.231 242.31 836.749 240.675 836.731 238.671C836.712 236.667 838.162 235.005 839.943 234.988C841.724 234.971 843.205 236.606 843.224 238.61Z" fill="#096A62"/>
</g>
<g clip-path="url(#clip13_311_16353)">
<path d="M946.112 215.778L937.758 215.856L937.783 218.58L946.137 218.501L946.112 215.778Z" fill="#1A3D2E"/>
<path d="M952.413 219.501L953.606 219.49L953.612 220.096L952.419 220.107L952.413 219.501Z" fill="#1A3D2E"/>
<path d="M952.401 218.291L953.595 218.279L953.6 218.885L952.407 218.896L952.401 218.291Z" fill="#1A3D2E"/>
<path d="M952.39 217.081L953.583 217.069L953.589 217.675L952.395 217.686L952.39 217.081Z" fill="#1A3D2E"/>
<path d="M952.379 215.87L953.572 215.858L953.578 216.464L952.385 216.475L952.379 215.87Z" fill="#1A3D2E"/>
<path d="M952.367 214.66L953.561 214.648L953.566 215.254L952.373 215.265L952.367 214.66Z" fill="#1A3D2E"/>
<path d="M952.355 213.449L953.549 213.438L953.555 214.043L952.361 214.054L952.355 213.449Z" fill="#1A3D2E"/>
<path d="M952.345 212.239L953.538 212.228L953.544 212.833L952.35 212.844L952.345 212.239Z" fill="#1A3D2E"/>
<path d="M952.333 211.029L953.526 211.018L953.532 211.623L952.339 211.634L952.333 211.029Z" fill="#1A3D2E"/>
<path d="M952.321 209.818L953.515 209.807L953.52 210.412L952.327 210.423L952.321 209.818Z" fill="#1A3D2E"/>
<path d="M952.311 208.607L953.504 208.596L953.51 209.201L952.316 209.212L952.311 208.607Z" fill="#1A3D2E"/>
<path d="M937.78 218.278L953.593 218.129L953.744 234.168L937.931 234.316L937.78 218.278Z" fill="#7DA196"/>
<path d="M968.817 218.893L970.011 218.882L970.016 219.487L968.823 219.498L968.817 218.893Z" fill="#1A3D2E"/>
<path d="M968.806 217.683L969.999 217.672L970.005 218.277L968.811 218.288L968.806 217.683Z" fill="#1A3D2E"/>
<path d="M968.795 216.472L969.988 216.461L969.994 217.066L968.801 217.077L968.795 216.472Z" fill="#1A3D2E"/>
<path d="M968.783 215.262L969.977 215.251L969.982 215.856L968.789 215.867L968.783 215.262Z" fill="#1A3D2E"/>
<path d="M968.771 214.051L969.965 214.04L969.971 214.645L968.777 214.656L968.771 214.051Z" fill="#1A3D2E"/>
<path d="M968.761 212.841L969.954 212.83L969.96 213.435L968.766 213.447L968.761 212.841Z" fill="#1A3D2E"/>
<path d="M968.749 211.63L969.942 211.619L969.948 212.224L968.755 212.236L968.749 211.63Z" fill="#1A3D2E"/>
<path d="M968.737 210.42L969.931 210.409L969.936 211.014L968.743 211.026L968.737 210.42Z" fill="#1A3D2E"/>
<path d="M968.727 209.209L969.92 209.198L969.926 209.804L968.732 209.815L968.727 209.209Z" fill="#1A3D2E"/>
<path d="M968.715 208L969.908 207.988L969.914 208.593L968.72 208.605L968.715 208Z" fill="#1A3D2E"/>
<path d="M965.849 205L963.462 205.022L963.485 207.443L965.871 207.421L965.849 205Z" fill="#7DA196"/>
<path d="M958.689 205.067L956.302 205.09L956.325 207.511L958.711 207.488L958.689 205.067Z" fill="#7DA196"/>
<path d="M968.922 206.635L953.259 206.782L953.516 234.169L969.179 234.022L968.922 206.635Z" fill="#7DA196"/>
<path d="M975.568 222.916L967.662 222.99L967.766 234.036L975.672 233.961L975.568 222.916Z" fill="#7DA196"/>
<path d="M975.347 199.312L973.706 199.327L973.928 222.931L975.569 222.916L975.347 199.312Z" fill="#1A3D2E"/>
<path d="M991.132 196.288L975.319 196.437L975.679 234.717L991.492 234.569L991.132 196.288Z" fill="#7DA196"/>
<path d="M990.562 230.945L976.54 231.077L976.549 231.985L990.571 231.853L990.562 230.945Z" fill="#1A3D2E"/>
<path d="M990.547 229.25L976.524 229.382L976.533 230.29L990.555 230.158L990.547 229.25Z" fill="#1A3D2E"/>
<path d="M990.531 227.554L976.509 227.686L976.517 228.593L990.539 228.462L990.531 227.554Z" fill="#1A3D2E"/>
<path d="M990.514 225.857L976.492 225.989L976.501 226.897L990.523 226.765L990.514 225.857Z" fill="#1A3D2E"/>
<path d="M990.499 224.161L976.477 224.293L976.485 225.201L990.507 225.069L990.499 224.161Z" fill="#1A3D2E"/>
<path d="M990.483 222.465L976.461 222.597L976.469 223.505L990.492 223.373L990.483 222.465Z" fill="#1A3D2E"/>
<path d="M990.466 220.769L976.444 220.9L976.453 221.808L990.475 221.676L990.466 220.769Z" fill="#1A3D2E"/>
<path d="M990.451 219.072L976.429 219.204L976.437 220.112L990.459 219.98L990.451 219.072Z" fill="#1A3D2E"/>
<path d="M990.435 217.376L976.413 217.508L976.422 218.416L990.444 218.284L990.435 217.376Z" fill="#1A3D2E"/>
<path d="M990.419 215.68L976.396 215.812L976.405 216.719L990.427 216.588L990.419 215.68Z" fill="#1A3D2E"/>
<path d="M990.403 213.983L976.381 214.115L976.389 215.023L990.412 214.891L990.403 213.983Z" fill="#1A3D2E"/>
<path d="M990.387 212.287L976.365 212.419L976.374 213.327L990.396 213.195L990.387 212.287Z" fill="#1A3D2E"/>
<path d="M990.371 210.591L976.349 210.723L976.357 211.631L990.379 211.499L990.371 210.591Z" fill="#1A3D2E"/>
<path d="M990.355 208.895L976.333 209.026L976.342 209.934L990.364 209.803L990.355 208.895Z" fill="#1A3D2E"/>
<path d="M990.34 207.198L976.317 207.33L976.326 208.238L990.348 208.106L990.34 207.198Z" fill="#1A3D2E"/>
<path d="M990.323 205.502L976.301 205.634L976.309 206.542L990.331 206.41L990.323 205.502Z" fill="#1A3D2E"/>
<path d="M990.307 203.806L976.285 203.938L976.294 204.845L990.316 204.714L990.307 203.806Z" fill="#1A3D2E"/>
<path d="M990.292 202.109L976.27 202.241L976.278 203.149L990.3 203.017L990.292 202.109Z" fill="#1A3D2E"/>
<path d="M990.275 200.413L976.253 200.545L976.261 201.453L990.284 201.321L990.275 200.413Z" fill="#1A3D2E"/>
<path d="M990.259 198.717L976.237 198.849L976.246 199.757L990.268 199.625L990.259 198.717Z" fill="#1A3D2E"/>
<path d="M975.147 223.979L969.026 224.036L969.105 232.358L975.226 232.3L975.147 223.979Z" fill="#1A3D2E"/>
<path d="M958.538 211.727L956.577 211.745L956.789 234.29L958.75 234.272L958.538 211.727Z" fill="#1A3D2E"/>
<path d="M965.698 211.644L963.737 211.662L963.949 234.207L965.91 234.188L965.698 211.644Z" fill="#1A3D2E"/>
<path d="M962.118 211.693L960.157 211.711L960.369 234.256L962.33 234.237L962.118 211.693Z" fill="#1A3D2E"/>
<path d="M952.829 232.058L938.807 232.189L938.815 233.097L952.837 232.966L952.829 232.058Z" fill="#1A3D2E"/>
<path d="M952.81 230.015L938.788 230.146L938.797 231.054L952.819 230.923L952.81 230.015Z" fill="#1A3D2E"/>
<path d="M952.791 227.972L938.769 228.104L938.777 229.012L952.799 228.88L952.791 227.972Z" fill="#1A3D2E"/>
<path d="M952.771 225.93L938.749 226.062L938.758 226.969L952.78 226.838L952.771 225.93Z" fill="#1A3D2E"/>
<path d="M952.753 223.887L938.73 224.019L938.739 224.926L952.761 224.795L952.753 223.887Z" fill="#1A3D2E"/>
<path d="M952.733 221.844L938.711 221.976L938.719 222.883L952.742 222.752L952.733 221.844Z" fill="#1A3D2E"/>
<path d="M952.714 219.801L938.691 219.933L938.7 220.84L952.722 220.709L952.714 219.801Z" fill="#1A3D2E"/>
</g>
<g clip-path="url(#clip14_311_16353)">
<path d="M1339.79 1771.73C1334.26 1771.7 1331.87 1766.05 1331.75 1761.26C1331.63 1756.76 1329.61 1752.88 1326.55 1749.39C1323.15 1745.52 1316.55 1742.59 1317.4 1736.57C1318.19 1731.02 1320.58 1725.81 1322.93 1720.78C1325.36 1715.59 1332.82 1715.39 1336.32 1719.66C1342.42 1727.08 1344.21 1737.07 1344.51 1746.37C1344.77 1754.54 1344.71 1763.3 1340.63 1770.62L1340.22 1771.2L1339.79 1771.73Z" fill="#48D581"/>
<path d="M1337.71 1759.46C1337.71 1759.6 1337.59 1759.71 1337.45 1759.7C1337.32 1759.69 1337.21 1759.57 1337.22 1759.44C1337.22 1759.44 1341.46 1739.36 1323.64 1720.51C1323.55 1720.41 1324.05 1719.8 1324.14 1719.69C1324.22 1719.59 1324.38 1719.57 1324.48 1719.66C1342.67 1738.28 1337.71 1759.46 1337.71 1759.46Z" fill="#FFFF00"/>
<path d="M1343.46 1763.66C1341.81 1759.35 1343.07 1755.03 1342.51 1749.9C1342.42 1749.09 1341.26 1747.2 1341.12 1746.4C1340.64 1743.61 1338.97 1739.24 1338.49 1736.46C1338.04 1733.87 1338.53 1730.15 1338.04 1728.7C1337.16 1726.09 1333.28 1721.94 1334.02 1717.71C1334.19 1717.83 1334.35 1717.95 1334.51 1718.08C1340.51 1722.96 1342.62 1730.98 1343.64 1738.28C1344.81 1746.6 1345.63 1755.5 1343.46 1763.66Z" fill="#85E380"/>
</g>
<g clip-path="url(#clip15_311_16353)">
<path d="M1385.71 1721.56C1383.87 1716.14 1377.61 1715.2 1372.66 1716.53C1367.82 1717.82 1362.93 1717.65 1357.99 1715.65C1353 1713.63 1348.55 1708.08 1342.98 1709.48C1336.67 1711.06 1332.28 1716.4 1327.19 1720.11C1322.43 1723.58 1321.89 1731.46 1327.04 1734.76C1334.3 1739.41 1343.53 1738.82 1351.62 1737.35C1362.74 1735.33 1374.57 1732.49 1383.03 1724.74C1384.05 1723.8 1385 1722.76 1385.71 1721.56Z" fill="#48D581"/>
<path d="M1373.19 1723.99C1373.33 1723.94 1373.4 1723.78 1373.35 1723.64C1373.29 1723.5 1373.13 1723.43 1372.99 1723.48C1372.99 1723.48 1353.21 1735 1327 1722.74C1326.86 1722.67 1326.25 1722.41 1325.99 1722.99C1325.72 1723.62 1326.27 1723.84 1326.4 1723.92C1352.49 1736.67 1373.19 1723.99 1373.19 1723.99Z" fill="#FFFF00"/>
<path d="M1381.41 1726.13C1381.96 1725.69 1382.5 1725.22 1383.03 1724.74C1384.05 1723.8 1385 1722.76 1385.71 1721.56C1385.48 1720.89 1385.19 1720.29 1384.84 1719.75C1384.86 1719.81 1384.88 1719.86 1384.91 1719.92C1384.2 1721.12 1383.25 1722.16 1382.22 1723.1C1373.77 1730.85 1361.93 1733.69 1350.82 1735.71C1342.73 1737.19 1333.5 1737.77 1326.23 1733.12C1325.27 1732.51 1324.63 1731.62 1324.05 1730.75C1324.62 1732.29 1325.51 1733.78 1327.04 1734.76C1334.3 1739.41 1343.53 1738.82 1351.62 1737.35C1362.04 1735.46 1373.1 1732.84 1381.41 1726.13Z" fill="#85E380"/>
</g>
<defs>
<clipPath id="clip0_311_16353">
<rect width="324.418" height="245.018" fill="white" transform="translate(1742.81 486.011) rotate(67.9037)"/>
</clipPath>
<clipPath id="clip1_311_16353">
<rect width="217.79" height="177.502" fill="white" transform="matrix(0.752386 0.658723 0.658723 -0.752386 139.363 1690.8)"/>
</clipPath>
<clipPath id="clip2_311_16353">
<rect width="147.709" height="147.709" fill="white" transform="translate(0 592.92) rotate(-60)"/>
</clipPath>
<clipPath id="clip3_311_16353">
<rect width="135.859" height="136.656" fill="white" transform="translate(1479.63 296) rotate(45)"/>
</clipPath>
<clipPath id="clip4_311_16353">
<rect width="126.999" height="126.999" fill="white" transform="translate(1681.67 1543.18) rotate(129.15)"/>
</clipPath>
<clipPath id="clip5_311_16353">
<rect width="35.9778" height="35.9778" fill="white" transform="translate(1715.06 1179.62) rotate(103.443)"/>
</clipPath>
<clipPath id="clip6_311_16353">
<rect width="23.5717" height="23.5717" fill="white" transform="translate(1701.02 1190.3) rotate(103.443)"/>
</clipPath>
<clipPath id="clip7_311_16353">
<rect width="35.9778" height="35.9778" fill="white" transform="translate(1709.18 1193.52) rotate(103.443)"/>
</clipPath>
<clipPath id="clip8_311_16353">
<rect width="323" height="227" fill="white" transform="translate(725)"/>
</clipPath>
<clipPath id="clip9_311_16353">
<rect width="58.5885" height="58.5885" fill="white" transform="translate(736.728 183.55) rotate(-0.538619)"/>
</clipPath>
<clipPath id="clip10_311_16353">
<rect width="44.8763" height="44.8763" fill="white" transform="matrix(-0.999956 0.00940054 0.00940054 0.999956 915.874 186)"/>
</clipPath>
<clipPath id="clip11_311_16353">
<rect width="19.945" height="19.945" fill="white" transform="matrix(-0.999956 0.00940054 0.00940054 0.999956 779.577 233.013)"/>
</clipPath>
<clipPath id="clip12_311_16353">
<rect width="39.89" height="44.8763" fill="white" transform="translate(810.54 211.528) rotate(-0.538619)"/>
</clipPath>
<clipPath id="clip13_311_16353">
<rect width="53.6022" height="53.6022" fill="white" transform="matrix(-0.999956 0.00940054 0.00940054 0.999956 991.085 188.639)"/>
</clipPath>
<clipPath id="clip14_311_16353">
<rect width="48.8017" height="48.8017" fill="white" transform="matrix(0.369465 -0.929245 -0.929245 -0.369465 1346.35 1775)"/>
</clipPath>
<clipPath id="clip15_311_16353">
<rect width="49.3335" height="49.3335" fill="white" transform="translate(1387.8 1721.69) rotate(129.965)"/>
</clipPath>
</defs>
</svg>
