<svg width="191" height="157" viewBox="0 0 191 157" fill="none" xmlns="http://www.w3.org/2000/svg">
<g clip-path="url(#clip0_105_905)">
<path d="M84.8939 6.05324C85.8717 4.37232 87.2734 2.97739 88.9591 2.00781C90.6447 1.03823 92.5554 0.527954 94.5 0.527954C96.4446 0.527954 98.3553 1.03823 100.041 2.00781C101.727 2.97739 103.128 4.37232 104.106 6.05324L143.025 72.9438L191.016 156.674L94.5131 157L-2 156.674L45.9699 72.9438L84.8939 6.05324Z" fill="#10A07D"/>
<path opacity="0.15" d="M127.194 45.7227L104.963 7.85713C103.883 5.99814 102.334 4.45527 100.471 3.38281C98.6072 2.31036 96.4948 1.74591 94.3448 1.74591C92.1948 1.74591 90.0824 2.31036 88.219 3.38281C86.3556 4.45527 84.8063 5.99814 83.7263 7.85713L63.031 43.619C66.681 47.4319 71.3302 50.4559 77.0207 50.4559C80.8195 50.4549 84.5394 49.3713 87.7444 47.332C93.1851 51.4778 99.8374 53.7211 106.678 53.7165C114.535 53.706 121.704 50.4874 127.194 45.7227Z" fill="black"/>
<path d="M123.513 39.4117L104.001 5.52729C103.023 3.84638 101.622 2.45145 99.9358 1.48187C98.2502 0.512293 96.3396 0.00201416 94.3949 0.00201416C92.4503 0.00201416 90.5396 0.512293 88.854 1.48187C87.1683 2.45145 85.7666 3.84638 84.7888 5.52729L66.7126 37.3081C70.0155 40.758 73.5497 44.0607 78.7196 44.0607C82.1562 44.0674 85.523 43.0911 88.423 41.2471C93.3474 45.0064 99.3728 47.0394 105.568 47.0321C112.653 47.0269 118.543 43.7242 123.513 39.4117Z" fill="#EBF3FA"/>
</g>
<defs>
<clipPath id="clip0_105_905">
<rect width="193" height="157" fill="white" transform="translate(-2)"/>
</clipPath>
</defs>
</svg>
