<svg width="282" height="213" viewBox="0 0 282 213" fill="none" xmlns="http://www.w3.org/2000/svg">
<path d="M282 212.668L240.083 127.953L208.461 65.028C204.174 56.4981 191.193 56.4981 186.906 65.028L185.734 67.3505C184.801 69.2117 181.965 69.2117 181.029 67.3505L150.678 6.93743C146.391 -1.59584 133.411 -1.59584 129.12 6.93743L82.9632 98.8028L78.4737 107.884C77.5439 109.758 74.6981 109.765 73.7584 107.884C69.4714 99.3536 56.491 99.3536 52.204 107.884L31.3038 149.478L0 212.754L62.9762 213L101.439 212.851L139.899 213L168.789 212.887L197.679 213L282 212.668Z" fill="#117C87"/>
<path opacity="0.15" d="M200.774 80.8902C205.212 80.9195 209.483 79.1952 212.655 76.0928C212.913 75.8383 213.084 75.5088 213.144 75.1513C213.204 74.7937 213.149 74.4265 212.987 74.1021L210.148 68.4619C205.967 60.1377 196.613 56.4948 188.544 62.7952C186.953 64.0327 186.621 66.3551 185.293 68.014C185.132 68.1831 185.004 68.3798 184.914 68.5946C184.864 68.8429 184.871 69.0992 184.934 69.3444C186.714 75.9766 193.126 80.8902 200.774 80.8902Z" fill="black"/>
<path opacity="0.15" d="M151.528 9.3262C146.982 0.272043 133.205 0.272043 128.659 9.3262L112.57 41.1402C116.223 45.6391 122.164 48.4193 128.669 48.4193C131.26 48.4231 133.83 47.9508 136.25 47.0259C139.952 52.3111 146.341 55.8047 153.607 55.8047C160.683 55.8047 166.939 51.8399 170.682 46.7804L151.528 9.3262Z" fill="black"/>
<path d="M150.545 6.39995C146.258 -2.13332 133.278 -2.13332 128.988 6.39995L113.898 37.1589C117.339 41.399 122.864 43.2403 129.001 43.2403C131.443 43.2404 133.864 42.7905 136.144 41.9132C139.634 46.8899 145.654 50.1877 152.501 50.1877C159.172 50.1877 165.163 47.5567 168.689 42.7858L150.545 6.39995Z" fill="#EBF3FA"/>
<path d="M200.391 75.7079C202.465 75.7232 204.518 75.2909 206.409 74.4406C208.301 73.5903 209.986 72.342 211.35 70.781L208.461 65.028C204.174 56.4981 191.193 56.4981 186.906 65.028L186.684 65.4726C188.088 71.3318 193.69 75.7079 200.391 75.7079Z" fill="#EBF3FA"/>
</svg>
