<svg width="73" height="28" viewBox="0 0 73 28" fill="none" xmlns="http://www.w3.org/2000/svg">
<path d="M64.2607 13.4021H52.646L59.7957 0H64.2607V13.4021Z" fill="#BE2F35"/>
<path d="M59.347 12.512H11.5423V12.5844C8.57943 12.9578 5.82906 14.3195 3.73588 16.4495C1.64269 18.5794 0.329022 21.3531 0.0072567 24.322C-0.0130341 24.5239 0.00934259 24.7278 0.0729348 24.9204C0.136527 25.1131 0.239914 25.2902 0.376388 25.4404C0.512861 25.5905 0.679372 25.7102 0.865116 25.7918C1.05086 25.8735 1.25169 25.9151 1.45457 25.9141H58.9055C59.0503 25.9141 59.195 25.9141 59.347 25.9141C65.9322 25.9141 71.4392 20.7182 72.2136 14.1113C72.2349 13.9088 72.2134 13.7042 72.1503 13.5106C72.0872 13.3171 71.984 13.1391 71.8474 12.9881C71.7108 12.8372 71.5439 12.7168 71.3576 12.6347C71.1713 12.5527 70.9698 12.5109 70.7662 12.512H59.347Z" fill="#3BB67C"/>
<path d="M58.9057 12.512H11.5424V12.5844C9.57881 12.8185 7.69426 13.4967 6.03169 14.5674C4.36912 15.6382 2.97218 17.0734 1.94678 18.7644H70.7881C71.7852 16.831 72.3062 14.6874 72.3078 12.512H58.9057Z" fill="#F6FBFA"/>
<path d="M19.7269 16.9769H3.50257C2.60524 16.9769 1.5487 18.7644 0.651367 21.4491H19.7269C20.8697 21.402 21.9478 20.9059 22.7269 20.0685C23.506 19.2311 23.9232 18.1202 23.8879 16.9769H19.7269Z" fill="#16404C"/>
<path d="M32.5427 21.4491C33.7777 21.4491 34.7788 20.448 34.7788 19.213C34.7788 17.9781 33.7777 16.9769 32.5427 16.9769C31.3078 16.9769 30.3066 17.9781 30.3066 19.213C30.3066 20.448 31.3078 21.4491 32.5427 21.4491Z" fill="#16404C"/>
<path d="M49.5198 21.4491C50.7547 21.4491 51.7559 20.448 51.7559 19.213C51.7559 17.9781 50.7547 16.9769 49.5198 16.9769C48.2848 16.9769 47.2837 17.9781 47.2837 19.213C47.2837 20.448 48.2848 21.4491 49.5198 21.4491Z" fill="#16404C"/>
<path d="M41.031 21.4491C42.266 21.4491 43.2671 20.448 43.2671 19.213C43.2671 17.9781 42.266 16.9769 41.031 16.9769C39.7961 16.9769 38.7949 17.9781 38.7949 19.213C38.7949 20.448 39.7961 21.4491 41.031 21.4491Z" fill="#16404C"/>
<path d="M58.5147 16.0869H56.6042C56.3924 16.0869 56.2207 16.2586 56.2207 16.4704V21.0656C56.2207 21.2774 56.3924 21.4491 56.6042 21.4491H58.5147C58.7265 21.4491 58.8982 21.2774 58.8982 21.0656V16.4704C58.8982 16.2586 58.7265 16.0869 58.5147 16.0869Z" fill="#CAE5D5"/>
<path d="M42.2613 24.1267H36.2188C35.4195 24.1267 34.7715 24.7746 34.7715 25.574V26.2542C34.7715 27.0535 35.4195 27.7015 36.2188 27.7015H42.2613C43.0606 27.7015 43.7086 27.0535 43.7086 26.2542V25.574C43.7086 24.7746 43.0606 24.1267 42.2613 24.1267Z" fill="#A4D1A2"/>
<path d="M46.5526 26.4785L46.7118 27.6653L33.8018 23.5622L33.6426 22.3754L46.5526 26.4785Z" fill="#F6FBFA"/>
<path d="M50.9448 26.4785L51.0968 27.6653H46.7115L46.5522 26.4785H50.9448Z" fill="#F6FBFA"/>
<path d="M44.1645 22.3754L50.9452 26.4785H46.5526L33.6426 22.3754H44.1645Z" fill="#F6FBFA"/>
</svg>
