<svg id="Layer_1" data-name="Layer 1" xmlns="http://www.w3.org/2000/svg" viewBox="0 0 554 395.67"><defs><style>.cls-1{fill:#1a3d2e;}.cls-2{fill:#7da196;}</style></defs><path class="cls-1" d="M467.43,197.05h86.34V225.2H467.43Z"/><path class="cls-1" d="M402.67,236.15H390.34v6.25h12.33Z"/><path class="cls-1" d="M402.67,223.64H390.34v6.25h12.33Z"/><path class="cls-1" d="M402.67,211.12H390.34v6.26h12.33Z"/><path class="cls-1" d="M402.67,198.61H390.34v6.26h12.33Z"/><path class="cls-1" d="M402.67,186.1H390.34v6.26h12.33Z"/><path class="cls-1" d="M402.67,173.59H390.34v6.26h12.33Z"/><path class="cls-1" d="M402.67,161.08H390.34v6.26h12.33Z"/><path class="cls-1" d="M402.67,148.57H390.34v6.25h12.33Z"/><path class="cls-1" d="M402.67,136.06H390.34v6.25h12.33Z"/><path class="cls-1" d="M402.67,123.55H390.34v6.25h12.33Z"/><path class="cls-2" d="M553.77,222.07H390.34V387.85H553.77Z"/><path class="cls-1" d="M233.07,231.46H220.74v6.25h12.33Z"/><path class="cls-1" d="M233.07,218.94H220.74v6.26h12.33Z"/><path class="cls-1" d="M233.07,206.43H220.74v6.26h12.33Z"/><path class="cls-1" d="M233.07,193.92H220.74v6.26h12.33Z"/><path class="cls-1" d="M233.07,181.41H220.74v6.26h12.33Z"/><path class="cls-1" d="M233.07,168.9H220.74v6.26h12.33Z"/><path class="cls-1" d="M233.07,156.39H220.74v6.25h12.33Z"/><path class="cls-1" d="M233.07,143.88H220.74v6.25h12.33Z"/><path class="cls-1" d="M233.07,131.37H220.74v6.25h12.33Z"/><path class="cls-1" d="M233.07,118.86H220.74v6.25h12.33Z"/><path class="cls-2" d="M262.4,87.58h24.67v25H262.4Z"/><path class="cls-2" d="M336.41,87.58h24.67v25H336.41Z"/><path class="cls-2" d="M230.8,104.78H392.69V387.85H230.8Z"/><path class="cls-2" d="M163.69,273.68h81.72V387.85H163.69Z"/><path class="cls-1" d="M163.69,29.71h17v244h-17Z"/><path class="cls-2" d="M.26,0H163.69V395.67H.26Z"/><path class="cls-1" d="M9.51,358.13H154.44v9.38H9.51Z"/><path class="cls-1" d="M9.51,340.6H154.44V350H9.51Z"/><path class="cls-1" d="M9.51,323.07H154.44v9.38H9.51Z"/><path class="cls-1" d="M9.51,305.53H154.44v9.39H9.51Z"/><path class="cls-1" d="M9.51,288H154.44v9.39H9.51Z"/><path class="cls-1" d="M9.51,270.47H154.44v9.38H9.51Z"/><path class="cls-1" d="M9.51,252.94H154.44v9.38H9.51Z"/><path class="cls-1" d="M9.51,235.41H154.44v9.38H9.51Z"/><path class="cls-1" d="M9.51,217.88H154.44v9.38H9.51Z"/><path class="cls-1" d="M9.51,200.34H154.44v9.39H9.51Z"/><path class="cls-1" d="M9.51,182.81H154.44v9.38H9.51Z"/><path class="cls-1" d="M9.51,165.28H154.44v9.38H9.51Z"/><path class="cls-1" d="M9.51,147.75H154.44v9.38H9.51Z"/><path class="cls-1" d="M9.51,130.21H154.44v9.39H9.51Z"/><path class="cls-1" d="M9.51,112.68H154.44v9.39H9.51Z"/><path class="cls-1" d="M9.51,95.15H154.44v9.38H9.51Z"/><path class="cls-1" d="M9.51,77.62H154.44V87H9.51Z"/><path class="cls-1" d="M9.51,60.08H154.44v9.39H9.51Z"/><path class="cls-1" d="M9.51,42.55H154.44v9.39H9.51Z"/><path class="cls-1" d="M9.51,25H154.44V34.4H9.51Z"/><path class="cls-1" d="M168.14,284.63h63.27v86H168.14Z"/><path class="cls-1" d="M338.61,156.39h20.27v233H338.61Z"/><path class="cls-1" d="M264.6,156.23h20.27v233H264.6Z"/><path class="cls-1" d="M301.61,156.39h20.27v233H301.61Z"/><path class="cls-1" d="M399.59,366H544.52v9.38H399.59Z"/><path class="cls-1" d="M399.59,344.84H544.52v9.38H399.59Z"/><path class="cls-1" d="M399.59,323.72H544.52v9.39H399.59Z"/><path class="cls-1" d="M399.59,302.61H544.52V312H399.59Z"/><path class="cls-1" d="M399.59,281.5H544.52v9.38H399.59Z"/><path class="cls-1" d="M399.59,260.39H544.52v9.38H399.59Z"/><path class="cls-1" d="M399.59,239.27H544.52v9.39H399.59Z"/></svg>