<svg width="219" height="219" viewBox="0 0 219 219" fill="none" xmlns="http://www.w3.org/2000/svg">
<path d="M218.925 138.297C218.925 148.254 214.891 157.26 208.372 163.781C201.851 170.301 192.844 174.337 182.887 174.337H47.0696C27.1634 174.337 11.0312 158.205 11.0312 138.297C11.0312 128.34 15.0655 119.334 21.5862 112.814C28.1069 106.293 37.1204 102.259 47.0696 102.259H48.2362C49.993 96.6041 53.107 91.5427 57.1892 87.462C63.7162 80.9335 72.7296 76.8978 82.6943 76.8978H89.3065C93.7404 64.349 105.708 55.3572 119.777 55.3572H126.343C140.926 55.3572 153.261 65.0229 157.273 78.3014C168.911 81.6617 178.123 90.7216 181.712 102.259H182.887C202.793 102.259 218.925 118.391 218.925 138.297Z" fill="#58A097" fill-opacity="0.2"/>
<path d="M208.08 127.452C208.08 137.409 204.046 146.415 197.527 152.936C191.006 159.457 181.999 163.492 172.042 163.492H36.2249C16.3187 163.492 0.186523 147.36 0.186523 127.452C0.186523 117.496 4.22073 108.49 10.7415 101.969C17.2622 95.4483 26.2757 91.4141 36.2249 91.4141H37.3914C39.1483 85.7594 42.2622 80.6981 46.3445 76.6174C52.8714 70.0889 61.8849 66.0531 71.8496 66.0531H78.4617C82.8956 53.5043 94.8635 44.5125 108.932 44.5125H115.498C130.081 44.5125 142.416 54.1782 146.428 67.4567C158.066 70.817 167.278 79.877 170.868 91.4141H172.042C191.948 91.4141 208.08 107.546 208.08 127.452Z" fill="white"/>
</svg>
