<svg width="133" height="132" viewBox="0 0 133 132" fill="none" xmlns="http://www.w3.org/2000/svg">
<path fill-rule="evenodd" clip-rule="evenodd" d="M49.5456 17.9498L61.3852 7.32545C62.365 6.4473 63.9297 7.13762 63.9297 8.44726V59.8511C78.7422 62.9847 89.8479 76.0434 89.8479 91.6768V110.754L90.2353 110.504C90.4365 110.375 90.9842 110.253 91.394 110.123L92.7501 109.704C93.6553 109.424 94.5569 109.107 95.4287 108.752C97.1797 108.114 98.8226 107.301 100.294 106.435C101.758 105.551 103.118 104.65 104.232 103.6C104.843 103.129 105.29 102.525 105.838 102.037C106.288 101.453 106.773 100.929 107.183 100.336C108.013 99.1619 108.714 97.9218 109.254 96.6832C109.742 95.4153 110.141 94.1378 110.36 92.776C110.487 92.0983 110.554 91.3987 110.606 90.6899C110.636 89.9708 110.58 89.2557 110.752 88.5054C110.886 87.7567 111.202 86.9647 111.653 86.0991C112.141 85.2317 112.752 84.2596 113.84 83.1918L117.186 79.9118C119.894 77.2529 124.04 76.9168 127.118 78.8798C128.921 80.029 130.057 81.3308 130.948 82.7573C131.823 84.1809 132.356 85.7124 132.654 87.2838C132.792 88.071 132.851 88.8708 132.874 89.6702C132.862 90.4729 132.818 91.2771 132.784 92.0798C132.654 93.6912 132.453 95.3044 132.129 96.9143C131.45 100.123 130.34 103.286 128.805 106.219C127.237 109.142 125.303 111.786 123.053 114.126C118.56 118.852 112.722 122.059 106.959 123.65C104.064 124.503 101.136 124.845 98.2787 125.021C96.8369 125.081 95.4063 125.041 93.9795 124.96C93.2642 124.924 92.5489 124.825 91.8224 124.736C91.0587 124.636 90.4365 124.531 89.4642 124.348C88.8942 124.24 88.3577 124.062 87.8585 123.825H18.7171C8.46829 123.825 0.0896666 115.506 0.0896666 105.337V71.4445H0.0859375V17.9498H0.0896666V8.44726C0.0896666 7.13762 1.65063 6.4473 2.63416 7.32545L14.47 17.9498H49.5456Z" fill="currentColor"/>
<path d="M23.6315 28.4376C21.9535 28.4376 20.5781 27.0741 20.5781 25.4072V20.9794C20.5781 19.3125 21.9535 17.949 23.6315 17.949C25.3111 17.949 26.6864 19.3125 26.6864 20.9794V25.4072C26.6864 27.0741 25.3111 28.4376 23.6315 28.4376Z" fill="#793D11"/>
<path d="M32.1813 28.4376C30.5033 28.4376 29.1279 27.0741 29.1279 25.4072V20.9794C29.1279 19.3125 30.5033 17.949 32.1813 17.949C33.8609 17.949 35.2362 19.3125 35.2362 20.9794V25.4072C35.2362 27.0741 33.8609 28.4376 32.1813 28.4376Z" fill="#793D11"/>
<path d="M69.5593 73.8758C68.4261 72.6464 68.5099 70.7206 69.7502 69.5944L73.0411 66.6041C74.2798 65.4779 76.2202 65.5626 77.3533 66.792C78.488 68.0214 78.4027 69.9487 77.1639 71.0734L73.8731 74.0653C72.6344 75.1899 70.6924 75.1052 69.5593 73.8758Z" fill="#793D11"/>
<path d="M76.4282 81.3225C75.2935 80.0931 75.3789 78.1658 76.6176 77.0411L79.9084 74.0508C81.1472 72.9246 83.0891 73.0093 84.2223 74.2387C85.357 75.4681 85.2701 77.3955 84.0313 78.5201L80.7405 81.5104C79.5017 82.6366 77.5614 82.5519 76.4282 81.3225Z" fill="#793D11"/>
<path d="M40.899 28.4376C39.2195 28.4376 37.8457 27.0741 37.8457 25.4072V20.9794C37.8457 19.3125 39.2195 17.949 40.899 17.949C42.5786 17.949 43.9524 19.3125 43.9524 20.9794V25.4072C43.9524 27.0741 42.5786 28.4376 40.899 28.4376Z" fill="#793D11"/>
<path d="M34.1396 49.2259C34.1396 50.0948 33.1865 50.7989 32.0099 50.7989C30.8333 50.7989 29.8802 50.0948 29.8802 49.2259C29.8802 48.357 30.8333 47.6529 32.0099 47.6529C33.1865 47.6529 34.1396 48.357 34.1396 49.2259Z" fill="#793D11"/>
<path d="M31.8386 51.6776C31.8386 53.0811 30.6759 54.235 29.2618 54.235C27.8492 54.235 26.6865 53.0811 26.6865 51.6776" stroke="#793D11" stroke-width="3.5" stroke-miterlimit="10"/>
<path d="M37.3333 51.6776C37.3333 53.0811 36.1691 54.235 34.7565 54.235C33.3439 54.235 32.1797 53.0811 32.1797 51.6776" stroke="#793D11" stroke-width="3.5" stroke-miterlimit="10"/>
<path d="M32.0068 49.2262V52.7665" stroke="#793D11" stroke-width="5" stroke-miterlimit="10"/>
<path d="M9.2207 40.2839C9.2207 45.0691 13.1309 48.9484 17.9523 48.9484C22.7753 48.9484 26.6871 45.0691 26.6871 40.2839C26.6871 35.4957 22.7753 31.6179 17.9523 31.6179C13.1309 31.6179 9.2207 35.4957 9.2207 40.2839Z" fill="#F5E35F"/>
<path d="M12.1104 40.2834C12.1104 43.9701 15.1218 46.9589 18.8364 46.9589C22.551 46.9589 25.5625 43.9701 25.5625 40.2834C25.5625 36.5967 22.551 33.6079 18.8364 33.6079C15.1218 33.6079 12.1104 36.5967 12.1104 40.2834Z" fill="#1D1D1B"/>
<path d="M17.2686 37.1591C17.2686 37.82 16.7284 38.3562 16.0624 38.3562C15.3965 38.3562 14.8547 37.82 14.8547 37.1591C14.8547 36.4966 15.3965 35.962 16.0624 35.962C16.7284 35.962 17.2686 36.4966 17.2686 37.1591Z" fill="white"/>
<path d="M19.5801 42.6289C19.5801 43.9246 18.5214 44.9737 17.2159 44.9737C15.9105 44.9737 14.8518 43.9246 14.8518 42.6289C14.8518 41.3317 15.9105 40.2826 17.2159 40.2826C18.5214 40.2826 19.5801 41.3317 19.5801 42.6289Z" fill="white"/>
<path d="M35.2207 40.2839C35.2207 45.0691 39.1309 48.9484 43.9523 48.9484C48.7753 48.9484 52.6871 45.0691 52.6871 40.2839C52.6871 35.4957 48.7753 31.6179 43.9523 31.6179C39.1309 31.6179 35.2207 35.4957 35.2207 40.2839Z" fill="#F5E35F"/>
<path d="M38.1104 40.2834C38.1104 43.9701 41.1218 46.9589 44.8364 46.9589C48.551 46.9589 51.5625 43.9701 51.5625 40.2834C51.5625 36.5967 48.551 33.6079 44.8364 33.6079C41.1218 33.6079 38.1104 36.5967 38.1104 40.2834Z" fill="#1D1D1B"/>
<path d="M43.2686 37.1591C43.2686 37.82 42.7284 38.3562 42.0624 38.3562C41.3965 38.3562 40.8547 37.82 40.8547 37.1591C40.8547 36.4966 41.3965 35.962 42.0624 35.962C42.7284 35.962 43.2686 36.4966 43.2686 37.1591Z" fill="white"/>
<path d="M45.584 42.6289C45.584 43.9246 44.5253 44.9737 43.2198 44.9737C41.9144 44.9737 40.8557 43.9246 40.8557 42.6289C40.8557 41.3317 41.9144 40.2826 43.2198 40.2826C44.5253 40.2826 45.584 41.3317 45.584 42.6289Z" fill="white"/>
</svg>
