<svg id="Layer_1" data-name="Layer 1" xmlns="http://www.w3.org/2000/svg" viewBox="0 0 134.68 85.13"><defs><style>.cls-1{fill:currentColor;}.cls-2{fill:#f5e35f;}.cls-3{fill:#1d1d1b;}.cls-4,.cls-5{opacity:0.08;}.cls-13,.cls-5,.cls-9{fill:#fff;}.cls-13,.cls-5,.cls-7,.cls-9{isolation:isolate;}.cls-6,.cls-7{opacity:0.14;}.cls-11,.cls-7{fill:none;}.cls-7{stroke:#fff;stroke-linecap:round;stroke-linejoin:round;stroke-width:0.01px;}.cls-8,.cls-9{opacity:0.8;}.cls-10{fill:#793d11;}.cls-11{stroke:#793d11;stroke-miterlimit:10;stroke-width:2px;}.cls-12,.cls-13{opacity:0.05;}</style></defs><path class="cls-1" d="M91.49,9.62,81.15.34a1.33,1.33,0,0,0-2.22,1v33H56.39A25.52,25.52,0,0,0,30.78,59.71V70c-.77-.37-1.51-.76-2.2-1.17a19.36,19.36,0,0,1-3.43-2.48c-.54-.41-.93-.94-1.41-1.36s-.82-1-1.17-1.49a17.58,17.58,0,0,1-1.81-3.19,16.62,16.62,0,0,1-1-3.41,15.34,15.34,0,0,1-.21-1.82,10.4,10.4,0,0,0-.13-1.91,7.41,7.41,0,0,0-.79-2.1,10.16,10.16,0,0,0-1.91-2.54l-2.92-2.86a7,7,0,0,0-8.67-.91,10.23,10.23,0,0,0-3.34,3.39A11.45,11.45,0,0,0,.33,52.12a12.21,12.21,0,0,0-.19,2.09c0,.7,0,1.4.07,2.1a35.66,35.66,0,0,0,.58,4.22,31.57,31.57,0,0,0,2.9,8.13,31.38,31.38,0,0,0,5,6.9,30.94,30.94,0,0,0,14.05,8.32,34.16,34.16,0,0,0,7.58,1.2h.44v0H134.67V59.71c0-.25,0-.5,0-.74h0V1.32a1.33,1.33,0,0,0-2.22-1L122.12,9.62Z"/><path class="cls-2" d="M111.84,27.69a7.63,7.63,0,1,0,7.63-7.57A7.6,7.6,0,0,0,111.84,27.69Z"/><path class="cls-3" d="M114.37,27.69a5.87,5.87,0,1,0,5.87-5.83A5.85,5.85,0,0,0,114.37,27.69Z"/><g class="cls-4"><g class="cls-4"><path class="cls-5" d="M114.78,28.45a5.28,5.28,0,1,0,5.28-5.06A5.17,5.17,0,0,0,114.78,28.45Z"/></g></g><g class="cls-6"><g class="cls-6"><path class="cls-7" d="M119.64,24.61a4.56,4.56,0,0,0-1.25.4,4.28,4.28,0,0,0-1.09.74"/></g></g><g class="cls-8"><g class="cls-8"><path class="cls-9" d="M121.7,25.17a.75.75,0,0,0,1.5,0,.75.75,0,0,0-1.5,0Z"/></g></g><path class="cls-10" d="M113.32,19.18A2.67,2.67,0,0,0,116,16.53V12.66a2.67,2.67,0,0,0-5.33,0v3.87A2.66,2.66,0,0,0,113.32,19.18Z"/><path class="cls-10" d="M105.86,19.18a2.66,2.66,0,0,0,2.66-2.65V12.66a2.67,2.67,0,0,0-5.33,0v3.87A2.67,2.67,0,0,0,105.86,19.18Z"/><path class="cls-10" d="M98.24,19.18a2.67,2.67,0,0,0,2.67-2.65V12.66a2.67,2.67,0,0,0-5.34,0v3.87A2.67,2.67,0,0,0,98.24,19.18Z"/><path class="cls-10" d="M63.56,43.37a2.66,2.66,0,0,0,2.67-2.64V36.86a2.67,2.67,0,0,0-5.33,0v3.87A2.66,2.66,0,0,0,63.56,43.37Z"/><path class="cls-10" d="M54.68,43.37a2.66,2.66,0,0,0,2.67-2.64V36.86a2.67,2.67,0,0,0-5.33,0v3.87A2.66,2.66,0,0,0,54.68,43.37Z"/><path class="cls-10" d="M104,36c0,.76.83,1.37,1.86,1.37s1.86-.61,1.86-1.37-.84-1.37-1.86-1.37S104,35.25,104,36Z"/><path class="cls-11" d="M106,38.15a2.25,2.25,0,0,0,4.5,0"/><path class="cls-11" d="M101.21,38.15a2.25,2.25,0,0,0,4.5,0"/><path class="cls-11" d="M105.86,36V39.1"/><g class="cls-12"><g class="cls-12"><path class="cls-13" d="M115.66,30.2a2.08,2.08,0,1,0,2.08-2.07A2.07,2.07,0,0,0,115.66,30.2Z"/></g></g><path class="cls-2" d="M86,27.69a7.63,7.63,0,1,0,7.62-7.57A7.59,7.59,0,0,0,86,27.69Z"/><path class="cls-3" d="M88.48,27.69a5.88,5.88,0,1,0,5.87-5.83A5.85,5.85,0,0,0,88.48,27.69Z"/><g class="cls-4"><g class="cls-4"><path class="cls-5" d="M88.89,28.45a5.28,5.28,0,1,0,5.28-5.06A5.17,5.17,0,0,0,88.89,28.45Z"/></g></g><g class="cls-6"><g class="cls-6"><path class="cls-7" d="M93.76,24.61a4.52,4.52,0,0,0-1.26.4,4.46,4.46,0,0,0-1.09.74"/></g></g><g class="cls-8"><g class="cls-8"><path class="cls-9" d="M95.81,25.17a.75.75,0,0,0,1.5,0,.75.75,0,0,0-1.5,0Z"/></g></g><g class="cls-12"><g class="cls-12"><path class="cls-13" d="M89.77,30.2a2.08,2.08,0,1,0,2.08-2.07A2.07,2.07,0,0,0,89.77,30.2Z"/></g></g></svg>
